<svg width="747" height="722" viewBox="0 0 747 722" fill="none" xmlns="http://www.w3.org/2000/svg">
<g clip-path="url(#clip0_625_1825)">
<path d="M681.266 720.854V648.514C681.266 648.514 709.457 699.8 681.266 720.854Z" fill="#EAEAEA"/>
<path d="M683.007 720.841L629.718 671.92C629.718 671.92 686.563 685.836 683.007 720.841Z" fill="#EAEAEA"/>
<path d="M495.051 319.42L212.266 484.698C211.276 485.275 210.098 485.436 208.99 485.145C207.882 484.854 206.934 484.136 206.355 483.148L24.5054 172.009C23.9285 171.02 23.7676 169.841 24.0583 168.733C24.3489 167.625 25.0672 166.677 26.0556 166.098L308.841 0.820349C309.831 0.243395 311.009 0.0825904 312.117 0.373213C313.225 0.663836 314.173 1.38215 314.752 2.37058L496.601 313.509C497.178 314.499 497.339 315.677 497.048 316.785C496.758 317.893 496.039 318.841 495.051 319.42Z" fill="white"/>
<path d="M495.051 319.42L212.266 484.698C211.276 485.275 210.098 485.436 208.99 485.145C207.882 484.854 206.934 484.136 206.355 483.148L24.5054 172.009C23.9285 171.02 23.7676 169.841 24.0583 168.733C24.3489 167.625 25.0672 166.677 26.0556 166.098L308.841 0.820349C309.831 0.243395 311.009 0.0825904 312.117 0.373213C313.225 0.663836 314.173 1.38215 314.752 2.37058L496.601 313.509C497.178 314.499 497.339 315.677 497.048 316.785C496.758 317.893 496.039 318.841 495.051 319.42ZM26.9278 167.59C26.3348 167.938 25.9037 168.507 25.7294 169.171C25.555 169.836 25.6515 170.543 25.9977 171.137L207.847 482.276C208.195 482.869 208.763 483.3 209.428 483.474C210.093 483.648 210.8 483.552 211.394 483.206L494.179 317.928C494.772 317.58 495.203 317.012 495.377 316.347C495.552 315.682 495.455 314.975 495.109 314.381L313.26 3.24271C312.912 2.64963 312.344 2.21861 311.679 2.04423C311.014 1.86986 310.307 1.96636 309.713 2.31257L26.9278 167.59Z" fill="#606060"/>
<path d="M208.703 198.575L138.567 239.568C137.577 240.145 136.399 240.306 135.29 240.015C134.182 239.724 133.235 239.006 132.655 238.018L91.663 167.881C91.086 166.891 90.9252 165.713 91.2159 164.605C91.5065 163.497 92.2248 162.549 93.2132 161.97L163.35 120.977C164.34 120.4 165.518 120.24 166.626 120.53C167.734 120.821 168.682 121.539 169.261 122.528L210.253 192.664C210.83 193.654 210.991 194.832 210.701 195.94C210.41 197.049 209.692 197.996 208.703 198.575ZM94.0854 163.462C93.4923 163.81 93.0613 164.378 92.8869 165.043C92.7126 165.708 92.8091 166.415 93.1553 167.009L134.148 237.145C134.495 237.738 135.064 238.169 135.729 238.344C136.394 238.518 137.101 238.422 137.694 238.076L207.831 197.083C208.424 196.736 208.855 196.167 209.03 195.502C209.204 194.837 209.107 194.13 208.761 193.536L167.769 123.4C167.421 122.807 166.853 122.376 166.188 122.201C165.523 122.027 164.816 122.123 164.222 122.47L94.0854 163.462Z" fill="#EAEAEA"/>
<path d="M193.573 218.93L123.436 259.923C122.545 260.442 121.485 260.587 120.487 260.325C119.49 260.064 118.637 259.417 118.116 258.528L77.1234 188.391C76.6042 187.5 76.4594 186.44 76.721 185.442C76.9826 184.445 77.629 183.592 78.5186 183.071L148.655 142.078C149.546 141.559 150.606 141.414 151.604 141.676C152.601 141.938 153.454 142.584 153.975 143.474L194.968 213.61C195.487 214.501 195.632 215.561 195.37 216.559C195.109 217.556 194.462 218.409 193.573 218.93Z" fill="#606060"/>
<path d="M362.86 166.035L143.496 294.245C142.605 294.765 141.545 294.911 140.547 294.649C139.549 294.388 138.696 293.74 138.176 292.85C137.656 291.959 137.51 290.899 137.772 289.901C138.033 288.903 138.681 288.05 139.571 287.53L358.935 159.32C359.376 159.062 359.863 158.893 360.369 158.824C360.875 158.755 361.39 158.786 361.884 158.915C362.378 159.045 362.842 159.27 363.248 159.579C363.655 159.888 363.997 160.274 364.255 160.715C364.513 161.156 364.681 161.643 364.75 162.149C364.82 162.655 364.789 163.17 364.659 163.664C364.53 164.158 364.304 164.621 363.995 165.028C363.686 165.435 363.301 165.777 362.86 166.035Z" fill="#BBBBBB"/>
<path d="M323.403 220.127L157.015 317.375C156.574 317.633 156.086 317.801 155.581 317.871C155.075 317.94 154.56 317.909 154.066 317.779C153.068 317.518 152.215 316.87 151.695 315.98C151.174 315.09 151.029 314.029 151.291 313.031C151.552 312.033 152.199 311.18 153.09 310.66L319.478 213.412C319.919 213.154 320.406 212.986 320.912 212.917C321.418 212.847 321.933 212.878 322.427 213.008C322.921 213.137 323.385 213.363 323.792 213.672C324.198 213.98 324.54 214.366 324.798 214.807C325.056 215.248 325.224 215.736 325.293 216.242C325.363 216.748 325.332 217.262 325.202 217.756C325.073 218.25 324.847 218.714 324.538 219.121C324.23 219.528 323.844 219.87 323.403 220.127V220.127Z" fill="#BBBBBB"/>
<path d="M312.399 81.4114L215.402 138.103C214.511 138.624 213.451 138.769 212.453 138.507C211.455 138.246 210.602 137.598 210.082 136.708C209.561 135.817 209.416 134.757 209.678 133.759C209.939 132.761 210.587 131.908 211.477 131.388L308.475 74.6962C309.365 74.1758 310.426 74.0304 311.424 74.292C311.918 74.4216 312.381 74.6472 312.788 74.9559C313.195 75.2646 313.537 75.6505 313.795 76.0914C314.052 76.5324 314.221 77.0197 314.29 77.5257C314.359 78.0317 314.328 78.5464 314.199 79.0404C314.069 79.5344 313.844 79.998 313.535 80.4049C313.226 80.8117 312.84 81.1537 312.399 81.4114Z" fill="#BBBBBB"/>
<path d="M301.711 118.69L228.921 161.233C228.48 161.491 227.992 161.659 227.486 161.728C226.98 161.798 226.466 161.767 225.972 161.637C225.478 161.508 225.014 161.282 224.607 160.973C224.2 160.665 223.858 160.279 223.601 159.838C223.343 159.397 223.174 158.91 223.105 158.404C223.036 157.898 223.067 157.383 223.196 156.889C223.326 156.395 223.551 155.931 223.86 155.524C224.169 155.118 224.555 154.776 224.996 154.518L297.786 111.975C298.676 111.454 299.737 111.309 300.735 111.57C301.733 111.832 302.586 112.479 303.106 113.37C303.626 114.26 303.772 115.321 303.51 116.319C303.249 117.316 302.601 118.169 301.711 118.69Z" fill="#BBBBBB"/>
<path d="M389.897 212.295L170.534 340.505C169.643 341.026 168.582 341.171 167.585 340.909C166.587 340.648 165.734 340.001 165.213 339.11C164.693 338.22 164.548 337.159 164.809 336.161C165.071 335.163 165.718 334.311 166.609 333.79L385.972 205.58C386.863 205.059 387.924 204.914 388.921 205.176C389.919 205.437 390.772 206.084 391.292 206.975C391.813 207.865 391.958 208.926 391.697 209.924C391.435 210.922 390.788 211.775 389.897 212.295V212.295Z" fill="#BBBBBB"/>
<path d="M350.44 266.388L184.052 363.636C183.611 363.893 183.124 364.062 182.618 364.131C182.112 364.2 181.597 364.169 181.103 364.04C180.609 363.91 180.146 363.685 179.739 363.376C179.332 363.067 178.99 362.681 178.732 362.24C178.475 361.8 178.306 361.312 178.237 360.806C178.167 360.3 178.198 359.786 178.328 359.292C178.458 358.798 178.683 358.334 178.992 357.927C179.301 357.52 179.686 357.178 180.127 356.92L346.516 259.673C346.956 259.415 347.444 259.246 347.95 259.177C348.456 259.108 348.971 259.139 349.465 259.268C349.959 259.398 350.422 259.623 350.829 259.932C351.236 260.241 351.578 260.627 351.836 261.068C352.093 261.509 352.262 261.996 352.331 262.502C352.4 263.008 352.369 263.523 352.24 264.017C352.11 264.511 351.885 264.974 351.576 265.381C351.267 265.788 350.881 266.13 350.44 266.388V266.388Z" fill="#BBBBBB"/>
<path d="M416.935 258.555L197.571 386.766C197.13 387.023 196.643 387.192 196.137 387.261C195.631 387.331 195.116 387.3 194.622 387.17C194.128 387.04 193.664 386.815 193.258 386.506C192.851 386.197 192.509 385.811 192.251 385.371C191.993 384.93 191.825 384.442 191.756 383.936C191.686 383.43 191.717 382.916 191.847 382.422C191.976 381.928 192.202 381.464 192.511 381.057C192.819 380.65 193.205 380.308 193.646 380.051L413.01 251.84C413.451 251.583 413.938 251.414 414.444 251.345C414.95 251.276 415.465 251.306 415.959 251.436C416.453 251.566 416.917 251.791 417.323 252.1C417.73 252.409 418.072 252.795 418.33 253.235C418.588 253.676 418.756 254.164 418.825 254.67C418.895 255.176 418.864 255.69 418.734 256.184C418.605 256.678 418.379 257.142 418.07 257.549C417.762 257.956 417.376 258.298 416.935 258.555Z" fill="#BBBBBB"/>
<path d="M430.454 281.686L211.09 409.896C210.649 410.154 210.162 410.322 209.656 410.391C209.15 410.461 208.635 410.43 208.141 410.3C207.647 410.171 207.183 409.945 206.776 409.636C206.37 409.327 206.028 408.942 205.77 408.501C205.512 408.06 205.344 407.572 205.274 407.066C205.205 406.56 205.236 406.046 205.366 405.552C205.495 405.058 205.721 404.594 206.029 404.187C206.338 403.78 206.724 403.438 207.165 403.181L426.529 274.97C426.97 274.713 427.457 274.544 427.963 274.475C428.469 274.406 428.984 274.437 429.478 274.566C429.972 274.696 430.435 274.921 430.842 275.23C431.249 275.539 431.591 275.925 431.849 276.366C432.106 276.807 432.275 277.294 432.344 277.8C432.414 278.306 432.383 278.821 432.253 279.315C432.123 279.809 431.898 280.272 431.589 280.679C431.28 281.086 430.894 281.428 430.454 281.686Z" fill="#BBBBBB"/>
<path d="M359.516 371.729C362.564 368.14 365.307 364.303 367.717 360.258C369.879 356.609 372 352.708 372.476 348.429C372.72 346.606 372.53 344.752 371.922 343.017C371.314 341.282 370.305 339.715 368.977 338.443C367.694 337.26 366.068 336.517 364.334 336.319C362.599 336.122 360.847 336.482 359.331 337.347C357.797 338.227 356.53 339.506 355.663 341.049C354.796 342.591 354.363 344.338 354.408 346.107C354.533 348.054 355.095 349.948 356.054 351.647C357.013 353.346 358.342 354.807 359.944 355.921C366.428 360.618 376.554 360.373 383.465 356.798C391.249 352.771 395.271 342.236 389.155 335.025C387.883 333.525 385.767 335.201 386.085 336.819C386.49 339.005 387.713 340.954 389.505 342.268C391.298 343.581 393.525 344.161 395.73 343.889C397.936 343.616 399.955 342.512 401.374 340.801C402.792 339.09 403.505 336.902 403.364 334.684L400.615 336.291C403.986 337.784 407.69 338.363 411.355 337.969C415.02 337.576 418.517 336.225 421.495 334.051C422.967 332.981 424.282 331.71 425.402 330.275C426.747 328.519 429.008 327.385 430.838 326.12L444.029 317.006C445.969 315.665 444.124 312.471 442.168 313.822L430.222 322.077C428.231 323.452 426.227 324.811 424.249 326.204C422.834 327.199 421.964 328.807 420.677 329.99C418.24 332.181 415.231 333.635 411.999 334.182C408.768 334.729 405.447 334.345 402.425 333.077C402.144 332.926 401.828 332.849 401.508 332.855C401.189 332.861 400.876 332.948 400.6 333.11C400.324 333.271 400.094 333.5 399.933 333.776C399.771 334.052 399.682 334.364 399.676 334.684C399.822 336.007 399.438 337.335 398.61 338.377C397.781 339.42 396.574 340.092 395.252 340.249C393.93 340.406 392.599 340.033 391.55 339.213C390.501 338.394 389.818 337.192 389.65 335.871L386.58 337.666C390.525 342.318 387.898 349.453 383.353 352.575C378.27 356.065 370.76 356.671 365.031 354.501C363.625 354.018 362.335 353.25 361.239 352.245C360.144 351.24 359.268 350.02 358.666 348.661C358.107 347.434 357.948 346.062 358.21 344.74C358.472 343.417 359.143 342.21 360.128 341.288C360.981 340.445 362.128 339.967 363.327 339.954C364.526 339.942 365.684 340.395 366.555 341.22C367.503 342.188 368.199 343.375 368.581 344.676C368.963 345.977 369.02 347.351 368.745 348.679C368.155 352.374 366.112 355.781 364.212 358.936C362.043 362.532 359.589 365.949 356.875 369.153C355.354 370.954 357.979 373.548 359.516 371.729L359.516 371.729Z" fill="#606060"/>
<path d="M392.256 459.41C392.574 459.737 392.865 460.088 393.128 460.461L433.977 459.462L438.742 450.754L452.824 456.228L445.886 472.463C445.325 473.775 444.354 474.869 443.119 475.582C441.884 476.295 440.45 476.588 439.034 476.417L392.883 470.842C391.794 472.22 390.312 473.234 388.633 473.749C386.954 474.264 385.158 474.256 383.483 473.726C381.809 473.195 380.336 472.167 379.26 470.779C378.184 469.391 377.556 467.708 377.46 465.954C377.364 464.201 377.804 462.459 378.722 460.962C379.64 459.464 380.991 458.282 382.598 457.571C384.204 456.861 385.988 456.656 387.713 456.985C389.439 457.313 391.023 458.159 392.256 459.41Z" fill="#FFB7B7"/>
<path d="M525.416 707.487H511.985L505.595 655.68L525.418 655.681L525.416 707.487Z" fill="#FFB7B7"/>
<path d="M528.841 720.507L485.533 720.505V719.957C485.534 715.487 487.31 711.2 490.471 708.038C493.632 704.877 497.92 703.101 502.39 703.101H502.391L528.842 703.102L528.841 720.507Z" fill="#404040"/>
<path d="M403.455 707.189L391.104 701.912L405.579 651.76L423.808 659.548L403.455 707.189Z" fill="#FFB7B7"/>
<path d="M401.491 720.507L361.665 703.493L361.88 702.989C363.637 698.878 366.954 695.633 371.103 693.968C375.252 692.302 379.892 692.353 384.004 694.109L384.005 694.11L408.329 704.501L401.491 720.507Z" fill="#404040"/>
<path d="M460.131 470.633L459.159 486.372L487.55 489.41L517.256 492.589L508.512 468.69L460.131 470.633Z" fill="#FFB7B7"/>
<path d="M458.266 486.574L447.237 409.686L466.353 403.421L471.968 395.721L499.291 397.338L503.302 406.324L517.871 413.208L515.632 454.789L517.266 489.574L458.266 486.574Z" fill="#404040"/>
<path d="M451.324 465.97L431.879 458.19L431.962 457.844C432.046 457.495 440.322 422.911 441.42 417.354C442.565 411.564 446.747 409.963 446.925 409.898L447.055 409.85L454.75 412.192L458.13 438.747L451.324 465.97Z" fill="#404040"/>
<path d="M413.459 698.083L387.575 692.774L428.945 578.62L443.104 539.684C443.104 539.684 452.084 508.465 456.141 496.384L458.59 480.174L516.552 486.589C516.552 486.589 532.74 510.364 527.822 549.115L530.046 694.765L504.163 696.092L482.482 549.197L444.431 629.724C444.431 629.724 432.438 664.088 423.857 671.536L413.459 698.083Z" fill="#404040"/>
<path d="M493.308 491.995C493.763 491.984 494.219 492.01 494.671 492.07L521.711 461.437L518.566 452.022L532.155 445.417L539.343 461.544C539.923 462.847 540.066 464.303 539.749 465.693C539.431 467.084 538.672 468.334 537.583 469.256L502.117 499.308C502.387 501.044 502.123 502.82 501.359 504.402C500.595 505.983 499.368 507.295 497.84 508.162C496.313 509.029 494.558 509.41 492.808 509.255C491.059 509.1 489.398 508.416 488.047 507.295C486.695 506.173 485.718 504.666 485.243 502.975C484.769 501.284 484.821 499.489 485.392 497.828C485.963 496.167 487.027 494.719 488.441 493.677C489.854 492.636 491.552 492.049 493.308 491.995Z" fill="#FFB7B7"/>
<path d="M519.553 464.418L508.273 437.885L512.673 419.404L517.413 413.415C517.76 413.267 518.134 413.192 518.512 413.195C518.889 413.199 519.262 413.281 519.607 413.435C521.355 414.139 522.843 416.295 524.031 419.845L534.603 449.956L519.553 464.418Z" fill="#404040"/>
<path d="M461.031 385.89V365.886C461.031 358.777 463.855 351.96 468.882 346.933C473.908 341.906 480.726 339.082 487.835 339.082C494.944 339.082 501.762 341.906 506.789 346.933C511.815 351.96 514.639 358.777 514.639 365.886V385.89C514.638 386.844 514.259 387.759 513.584 388.434C512.909 389.109 511.993 389.489 511.039 389.49H464.631C463.677 389.489 462.762 389.109 462.087 388.434C461.412 387.759 461.032 386.844 461.031 385.89Z" fill="#404040"/>
<path d="M482.327 389.025C493.181 389.025 501.979 380.226 501.979 369.373C501.979 358.519 493.181 349.721 482.327 349.721C471.474 349.721 462.675 358.519 462.675 369.373C462.675 380.226 471.474 389.025 482.327 389.025Z" fill="#FFB7B7"/>
<path d="M454.69 367.487C454.696 361.865 456.932 356.476 460.907 352.501C464.882 348.526 470.271 346.29 475.893 346.283H479.894C485.515 346.29 490.905 348.526 494.88 352.501C498.855 356.476 501.091 361.865 501.097 367.487V367.887H492.642L489.759 359.812L489.182 367.887H484.813L483.358 363.813L483.067 367.887H454.69L454.69 367.487Z" fill="#404040"/>
<path d="M480.393 391.74C479.996 391.202 479.759 390.564 479.709 389.897C479.659 389.231 479.799 388.564 480.111 387.973C484.351 379.91 490.287 365.01 482.408 355.821L481.841 355.16H504.715V389.502L483.936 393.168C483.726 393.205 483.513 393.224 483.299 393.224C482.732 393.224 482.173 393.09 481.667 392.832C481.162 392.574 480.726 392.199 480.393 391.74Z" fill="#404040"/>
<path d="M213.567 696.171L225.705 700.509L248.214 655.754L230.299 649.352L213.567 696.171Z" fill="#9F616A"/>
<path d="M206.266 706.831L211.887 691.101L235.792 699.644C239.829 701.093 243.128 704.083 244.963 707.96C246.798 711.836 247.021 716.283 245.582 720.323L245.405 720.818L206.266 706.831Z" fill="#404040"/>
<path d="M292.499 708.177L305.389 708.176L311.522 658.457L292.497 658.458L292.499 708.177Z" fill="#9F616A"/>
<path d="M289.211 703.968L314.597 703.967H314.598C316.722 703.967 318.826 704.386 320.789 705.199C322.751 706.012 324.535 707.203 326.037 708.705C327.539 710.208 328.731 711.991 329.544 713.954C330.357 715.917 330.776 718.02 330.776 720.145V720.67L289.212 720.672L289.211 703.968Z" fill="#404040"/>
<path d="M263.122 390.531L268.728 379.454C268.728 379.454 289.612 384.686 291.511 396.79L263.122 390.531Z" fill="#EAEAEA"/>
<path d="M239.991 517.191L255.236 602.265L214.756 673.853L238.939 683.316L279.945 613.922L285.202 594.996L288.356 693.83L310.166 693.168L320.165 600.881L304.127 515.088L239.991 517.191Z" fill="#404040"/>
<path d="M268.931 537.302C246.534 537.302 232.314 533.018 231.996 532.951L231.48 532.841L243.146 478.755L243.671 428.866C243.671 407.724 257.585 392.138 259.516 390.699C259.841 389.416 260.443 388.219 261.278 387.192C262.114 386.165 263.163 385.333 264.354 384.754C268.995 382.648 274.667 385.175 274.905 385.284L291.929 391.666L292.009 391.902C292.214 392.507 314.636 466.116 314.636 466.116C314.636 466.116 313.279 530.431 312.806 532.538C312.806 532.538 281.375 537.302 268.931 537.302Z" fill="#606060"/>
<path d="M286.14 375.966C298.847 375.966 309.148 365.665 309.148 352.958C309.148 340.251 298.847 329.949 286.14 329.949C273.433 329.949 263.132 340.251 263.132 352.958C263.132 365.665 273.433 375.966 286.14 375.966Z" fill="#9F616A"/>
<path opacity="0.2" d="M260.486 432.946L300.739 489.108L306.683 462.881L260.486 432.946Z" fill="#404040"/>
<path d="M386.687 471.159C385.555 472.055 384.24 472.691 382.836 473.024C381.431 473.356 379.97 473.376 378.557 473.083C377.144 472.79 375.812 472.191 374.655 471.328C373.498 470.464 372.545 469.357 371.862 468.086L337.215 473.631L344.721 457.014L376.472 454.296C378.684 453.29 381.189 453.132 383.511 453.849C385.832 454.567 387.81 456.112 389.069 458.19C390.329 460.269 390.782 462.737 390.342 465.127C389.903 467.518 388.603 469.664 386.687 471.159H386.687Z" fill="#9F616A"/>
<path d="M346.505 456.069L358.954 454.848L362.404 472.214L346.739 472.491L346.505 456.069Z" fill="#EAEAEA"/>
<path d="M356.71 478.265L295.741 472.836L264.955 423.875L264.86 423.443C263.986 419.443 264.598 415.262 266.581 411.681C268.564 408.099 271.783 405.362 275.637 403.98C279.49 402.598 283.715 402.665 287.522 404.17C291.33 405.674 294.459 408.513 296.327 412.156L314.399 447.408L350.871 452.921L356.71 478.265Z" fill="#606060"/>
<path d="M266.542 372.934L285.639 373.62C286.803 373.661 289.963 361.099 290.376 358.493C290.703 356.796 291.636 355.276 293.002 354.217C294.367 353.158 296.071 352.633 297.796 352.739C299.225 352.874 302.83 350.203 306.55 347.041C313.612 341.037 313.244 329.76 305.487 324.687C305.275 324.549 305.067 324.422 304.863 324.307C299.969 321.568 294.244 320.648 288.636 320.578C283.552 320.515 278.324 321.154 273.846 323.561C265.816 327.875 261.543 337.301 261.168 346.408C260.793 355.515 263.712 364.42 267.025 372.912" fill="#404040"/>
<path d="M745.266 721.574H1.66339C1.39817 721.574 1.14382 721.469 0.956284 721.281C0.768747 721.094 0.663391 720.839 0.663391 720.574C0.663391 720.309 0.768747 720.054 0.956284 719.867C1.14382 719.679 1.39817 719.574 1.66339 719.574H745.663C745.929 719.574 746.183 719.679 746.37 719.867C746.558 720.054 746.663 720.309 746.663 720.574C746.663 721.126 745.818 721.574 745.266 721.574Z" fill="#BBBBBB"/>
</g>
<defs>
<clipPath id="clip0_625_1825">
<rect width="746" height="721.343" fill="white" transform="translate(0.663391 0.230713)"/>
</clipPath>
</defs>
</svg>
