<svg width="857" height="674" viewBox="0 0 857 674" fill="none" xmlns="http://www.w3.org/2000/svg">
<g clip-path="url(#clip0_625_1160)">
<path d="M421.927 153.136H418.386V56.1392C418.386 41.2502 412.472 26.9709 401.944 16.4428C391.415 5.91467 377.136 1.85655e-05 362.247 3.56295e-10H156.746C149.374 -2.62641e-05 142.074 1.45203 135.263 4.27326C128.452 7.09449 122.263 11.2296 117.05 16.4426C111.837 21.6556 107.702 27.8443 104.88 34.6554C102.059 41.4665 100.607 48.7666 100.607 56.1389V588.271C100.607 595.644 102.059 602.944 104.88 609.755C107.701 616.566 111.837 622.755 117.05 627.968C122.263 633.181 128.451 637.316 135.262 640.137C142.073 642.958 149.374 644.411 156.746 644.411H362.247C369.619 644.411 376.919 642.958 383.73 640.137C390.542 637.316 396.73 633.181 401.943 627.968C407.156 622.755 411.292 616.566 414.113 609.755C416.934 602.944 418.386 595.644 418.386 588.272V222.18H421.927V153.136Z" fill="#606060"/>
<path d="M364.089 15.9332H337.265C338.498 18.9576 338.969 22.2389 338.636 25.4882C338.303 28.7374 337.175 31.8548 335.354 34.5658C333.532 37.2768 331.071 39.4981 328.188 41.0341C325.306 42.57 322.09 43.3736 318.823 43.3738H201.094C197.828 43.3735 194.612 42.57 191.729 41.0341C188.847 39.4981 186.386 37.2768 184.564 34.5658C182.742 31.8548 181.615 28.7374 181.282 25.4882C180.949 22.239 181.42 18.9576 182.653 15.9332H157.599C146.48 15.9332 135.816 20.3502 127.954 28.2124C120.092 36.0747 115.675 46.7383 115.675 57.8572V589.209C115.675 594.714 116.759 600.166 118.866 605.252C120.973 610.339 124.061 614.961 127.954 618.854C131.847 622.747 136.469 625.835 141.555 627.942C146.642 630.048 152.093 631.133 157.599 631.133H364.089C375.208 631.133 385.872 626.716 393.734 618.854C401.596 610.991 406.014 600.328 406.014 589.209V57.8573C406.014 52.3517 404.929 46.9001 402.822 41.8136C400.715 36.7272 397.627 32.1055 393.734 28.2125C389.841 24.3195 385.22 21.2314 380.133 19.1245C375.047 17.0176 369.595 15.9332 364.089 15.9332H364.089ZM359.583 262.431C359.574 265.308 358.427 268.065 356.393 270.1C354.358 272.135 351.601 273.281 348.724 273.29H296.237C293.36 273.281 290.603 272.135 288.568 270.1C286.533 268.065 285.387 265.308 285.378 262.431V259.716C285.387 256.838 286.533 254.081 288.568 252.046C290.603 250.012 293.36 248.865 296.237 248.857H348.724C351.601 248.865 354.358 250.012 356.393 252.046C358.427 254.081 359.574 256.838 359.583 259.716V262.431ZM365.465 214.469C365.456 217.347 364.31 220.104 362.275 222.138C360.24 224.173 357.483 225.32 354.606 225.328H166.379C163.502 225.32 160.745 224.173 158.71 222.138C156.675 220.104 155.529 217.347 155.52 214.469V211.754C155.529 208.877 156.676 206.12 158.71 204.085C160.745 202.05 163.502 200.904 166.379 200.895H354.606C357.483 200.904 360.24 202.05 362.275 204.085C364.31 206.12 365.456 208.877 365.465 211.754V214.469ZM365.465 166.508C365.456 169.385 364.31 172.142 362.275 174.177C360.24 176.212 357.483 177.358 354.606 177.367H166.379C163.502 177.358 160.745 176.212 158.71 174.177C156.675 172.142 155.529 169.385 155.52 166.508V163.793C155.529 160.915 156.676 158.158 158.71 156.124C160.745 154.089 163.502 152.942 166.379 152.934H354.606C357.483 152.942 360.24 154.089 362.275 156.124C364.31 158.158 365.456 160.915 365.465 163.793V166.508ZM365.465 118.546C365.456 121.424 364.31 124.181 362.275 126.216C360.24 128.25 357.483 129.397 354.606 129.405H166.379C163.502 129.397 160.745 128.25 158.71 126.216C156.675 124.181 155.529 121.424 155.52 118.546V115.831C155.529 112.954 156.676 110.197 158.71 108.162C160.745 106.127 163.502 104.981 166.379 104.972H354.606C357.483 104.981 360.24 106.127 362.275 108.162C364.31 110.197 365.456 112.954 365.465 115.831V118.546Z" fill="white"/>
<path d="M170.452 219.899C173.95 219.899 176.786 217.063 176.786 213.564C176.786 210.066 173.95 207.23 170.452 207.23C166.953 207.23 164.117 210.066 164.117 213.564C164.117 217.063 166.953 219.899 170.452 219.899Z" fill="white"/>
<path d="M191.265 219.899C194.764 219.899 197.6 217.063 197.6 213.564C197.6 210.066 194.764 207.23 191.265 207.23C187.767 207.23 184.931 210.066 184.931 213.564C184.931 217.063 187.767 219.899 191.265 219.899Z" fill="white"/>
<path d="M212.079 219.899C215.577 219.899 218.413 217.063 218.413 213.564C218.413 210.066 215.577 207.23 212.079 207.23C208.58 207.23 205.744 210.066 205.744 213.564C205.744 217.063 208.58 219.899 212.079 219.899Z" fill="white"/>
<path d="M232.892 219.899C236.391 219.899 239.227 217.063 239.227 213.564C239.227 210.066 236.391 207.23 232.892 207.23C229.394 207.23 226.558 210.066 226.558 213.564C226.558 217.063 229.394 219.899 232.892 219.899Z" fill="white"/>
<path d="M300.762 267.86C304.26 267.86 307.097 265.024 307.097 261.526C307.097 258.027 304.26 255.191 300.762 255.191C297.264 255.191 294.427 258.027 294.427 261.526C294.427 265.024 297.264 267.86 300.762 267.86Z" fill="white"/>
<path d="M321.576 267.86C325.074 267.86 327.91 265.024 327.91 261.526C327.91 258.027 325.074 255.191 321.576 255.191C318.077 255.191 315.241 258.027 315.241 261.526C315.241 265.024 318.077 267.86 321.576 267.86Z" fill="white"/>
<path d="M342.389 267.86C345.887 267.86 348.723 265.024 348.723 261.526C348.723 258.027 345.887 255.191 342.389 255.191C338.891 255.191 336.054 258.027 336.054 261.526C336.054 265.024 338.891 267.86 342.389 267.86Z" fill="white"/>
<path d="M366.921 343.601H152.254C147.211 343.601 142.374 345.605 138.808 349.171C135.242 352.737 133.239 357.574 133.239 362.617V467.207C133.239 472.25 135.242 477.087 138.808 480.653C142.374 484.219 147.211 486.223 152.254 486.223H366.921C371.964 486.223 376.801 484.219 380.367 480.653C383.933 477.087 385.937 472.25 385.937 467.207V362.617C385.937 357.574 383.933 352.737 380.367 349.171C376.801 345.605 371.964 343.601 366.921 343.601H366.921ZM146.943 356.573C147.367 356.496 157.419 354.786 165.742 359.794C174.065 364.801 177.263 374.485 177.395 374.894L177.731 375.938L176.651 376.13C175.11 376.37 173.553 376.485 171.993 376.472C167.046 376.566 162.163 375.336 157.852 372.908C149.529 367.901 146.331 358.218 146.199 357.809L145.863 356.764L146.943 356.573ZM193.542 453.678H155.254C152.461 453.678 149.783 452.569 147.809 450.594C145.834 448.62 144.725 445.941 144.725 443.149C144.725 440.356 145.834 437.678 147.809 435.704C149.783 433.729 152.461 432.62 155.254 432.62H193.542C196.334 432.62 199.012 433.729 200.987 435.704C202.961 437.678 204.071 440.356 204.071 443.149C204.071 445.941 202.961 448.62 200.987 450.594C199.012 452.569 196.334 453.678 193.542 453.678ZM367.75 451.764C367.741 454.807 366.528 457.724 364.376 459.876C362.224 462.028 359.307 463.241 356.264 463.25H327.548C324.505 463.241 321.588 462.028 319.436 459.876C317.284 457.724 316.071 454.807 316.062 451.764V434.534C316.071 431.491 317.284 428.574 319.436 426.422C321.588 424.27 324.505 423.057 327.548 423.048H356.264C359.307 423.057 362.224 424.27 364.376 426.422C366.528 428.574 367.741 431.491 367.75 434.534L367.75 451.764Z" fill="#606060"/>
<path d="M336.807 448.213H325.261C324.436 448.213 323.646 448.541 323.063 449.124C322.48 449.707 322.152 450.497 322.152 451.322C322.152 452.146 322.48 452.937 323.063 453.52C323.646 454.103 324.436 454.43 325.261 454.43H336.807C337.631 454.43 338.422 454.103 339.005 453.52C339.588 452.937 339.915 452.146 339.915 451.322C339.915 450.497 339.588 449.707 339.005 449.124C338.422 448.541 337.631 448.213 336.807 448.213Z" fill="#606060"/>
<path d="M358.122 448.213H346.576C345.752 448.213 344.961 448.541 344.378 449.124C343.795 449.707 343.468 450.497 343.468 451.322C343.468 452.146 343.795 452.937 344.378 453.52C344.961 454.103 345.752 454.43 346.576 454.43H358.122C358.946 454.43 359.737 454.103 360.32 453.52C360.903 452.937 361.231 452.146 361.231 451.322C361.231 450.497 360.903 449.707 360.32 449.124C359.737 448.541 358.946 448.213 358.122 448.213Z" fill="#606060"/>
<path d="M336.805 439.438H325.259C324.435 439.438 323.644 439.766 323.061 440.349C322.478 440.932 322.151 441.723 322.151 442.547C322.151 443.371 322.478 444.162 323.061 444.745C323.644 445.328 324.435 445.655 325.259 445.655H336.805C337.629 445.655 338.42 445.328 339.003 444.745C339.586 444.162 339.913 443.371 339.913 442.547C339.913 441.723 339.586 440.932 339.003 440.349C338.42 439.766 337.629 439.438 336.805 439.438Z" fill="#606060"/>
<path d="M358.12 439.438H346.574C345.75 439.438 344.959 439.766 344.376 440.349C343.793 440.932 343.466 441.723 343.466 442.547C343.466 443.371 343.793 444.162 344.376 444.745C344.959 445.328 345.75 445.655 346.574 445.655H358.12C358.945 445.655 359.735 445.328 360.318 444.745C360.901 444.162 361.229 443.371 361.229 442.547C361.229 441.723 360.901 440.932 360.318 440.349C359.735 439.766 358.945 439.438 358.12 439.438H358.12Z" fill="#606060"/>
<path d="M336.805 430.841H325.259C324.435 430.841 323.644 431.169 323.061 431.752C322.478 432.335 322.151 433.125 322.151 433.95C322.151 434.774 322.478 435.565 323.061 436.148C323.644 436.731 324.435 437.058 325.259 437.058H336.805C337.629 437.058 338.42 436.731 339.003 436.148C339.586 435.565 339.913 434.774 339.913 433.95C339.913 433.125 339.586 432.335 339.003 431.752C338.42 431.169 337.629 430.841 336.805 430.841Z" fill="#606060"/>
<path d="M358.12 430.841H346.574C345.75 430.841 344.959 431.169 344.376 431.752C343.793 432.335 343.466 433.125 343.466 433.95C343.466 434.774 343.793 435.565 344.376 436.148C344.959 436.731 345.75 437.058 346.574 437.058H358.12C358.945 437.058 359.735 436.731 360.318 436.148C360.901 435.565 361.229 434.774 361.229 433.95C361.229 433.125 360.901 432.335 360.318 431.752C359.735 431.169 358.945 430.841 358.12 430.841H358.12Z" fill="#606060"/>
<path d="M515.602 383H487.602V411H515.602V383Z" fill="#EAEAEA"/>
<path d="M454.602 400H500.602V446H454.602V400ZM498.602 402H456.602V444H498.602V402Z" fill="#606060"/>
<path d="M28.6024 152H0.602356V180H28.6024V152Z" fill="#EAEAEA"/>
<path d="M61.6024 163H15.6024V117H61.6024V163ZM17.6024 161H59.6024V119H17.6024V161Z" fill="#606060"/>
<path d="M653.679 661.417H641.419L635.587 614.129H653.681L653.679 661.417Z" fill="#FFB8B8"/>
<path d="M632.662 657.914H656.306V672.8H617.776C617.776 668.852 619.344 665.066 622.136 662.274C624.928 659.482 628.714 657.914 632.662 657.914Z" fill="#404040"/>
<path d="M714.679 661.417H702.419L696.587 614.129H714.681L714.679 661.417Z" fill="#FFB8B8"/>
<path d="M693.662 657.914H717.306V672.8H678.776C678.776 668.852 680.344 665.066 683.136 662.274C685.928 659.482 689.714 657.914 693.662 657.914Z" fill="#404040"/>
<path d="M592.178 492.303C591.296 491.004 590.71 489.527 590.461 487.976C590.211 486.426 590.305 484.839 590.735 483.329C591.165 481.818 591.921 480.421 592.95 479.234C593.978 478.047 595.255 477.1 596.689 476.46L638.365 361.594L658.872 372.785L611.287 482.556C612.202 485.036 612.176 487.767 611.213 490.229C610.25 492.692 608.418 494.716 606.062 495.917C603.707 497.119 600.993 497.414 598.434 496.748C595.875 496.082 593.649 494.501 592.178 492.303Z" fill="#FFB8B8"/>
<path d="M708.417 513.887C707.055 513.106 705.88 512.036 704.976 510.752C704.072 509.467 703.461 508.001 703.185 506.454C702.909 504.908 702.975 503.321 703.38 501.803C703.784 500.285 704.516 498.875 705.524 497.671L692.613 376.161L715.951 377.228L721.317 496.748C723.227 498.576 724.401 501.041 724.615 503.677C724.83 506.312 724.07 508.935 722.48 511.047C720.89 513.16 718.58 514.616 715.988 515.139C713.396 515.663 710.702 515.217 708.417 513.887V513.887Z" fill="#FFB8B8"/>
<path d="M671.187 340.317C684.751 340.317 695.747 329.321 695.747 315.756C695.747 302.192 684.751 291.195 671.187 291.195C657.622 291.195 646.625 302.192 646.625 315.756C646.625 329.321 657.622 340.317 671.187 340.317Z" fill="#FFB8B8"/>
<path d="M708.26 486.252H634.213L634.302 485.676C634.436 484.815 647.499 399.237 637.864 371.24C636.897 368.489 636.982 365.477 638.103 362.785C639.223 360.093 641.3 357.91 643.934 356.657H643.934C657.706 350.171 684.141 342.186 706.454 361.566C709.737 364.465 712.301 368.088 713.943 372.148C715.585 376.209 716.259 380.596 715.913 384.962L708.26 486.252Z" fill="#606060"/>
<path d="M648.435 411.884L615.098 405.121L630.725 368.091C631.66 364.505 633.979 361.435 637.174 359.557C640.369 357.678 644.179 357.143 647.768 358.069C651.357 358.996 654.432 361.308 656.318 364.499C658.204 367.689 658.748 371.498 657.83 375.089L648.435 411.884Z" fill="#606060"/>
<path d="M691.131 424.442L689.127 378.5C687.607 369.864 692.551 361.7 700.154 360.366C707.76 359.036 715.186 365.026 716.713 373.726L724.246 416.653L691.131 424.442Z" fill="#606060"/>
<path d="M705.797 480.752C717.711 526.129 719.011 583.822 715.797 646.752L699.797 644.752L670.797 524.752L654.797 646.752L636.797 645.752C631.419 579.723 626.184 523.037 634.797 485.752L705.797 480.752Z" fill="#404040"/>
<path d="M687.37 334.738C682.788 339.619 674.278 336.998 673.681 330.331C673.635 329.813 673.638 329.292 673.692 328.775C674 325.821 675.706 323.14 675.297 320.021C675.205 319.245 674.916 318.506 674.457 317.872C670.806 312.983 662.235 320.059 658.789 315.633C656.676 312.919 659.16 308.646 657.538 305.613C655.398 301.609 649.06 303.584 645.085 301.391C640.662 298.952 640.926 292.166 643.838 288.039C647.388 283.005 653.613 280.319 659.761 279.932C665.909 279.545 672.014 281.207 677.753 283.444C684.275 285.985 690.741 289.497 694.754 295.231C699.634 302.204 700.104 311.579 697.663 319.733C696.179 324.693 691.111 330.752 687.37 334.738Z" fill="#404040"/>
<path d="M855.724 674H474.724C474.459 674 474.205 673.895 474.017 673.707C473.83 673.52 473.724 673.265 473.724 673C473.724 672.735 473.83 672.48 474.017 672.293C474.205 672.105 474.459 672 474.724 672H855.724C855.99 672 856.244 672.105 856.431 672.293C856.619 672.48 856.724 672.735 856.724 673C856.724 673.265 856.619 673.52 856.431 673.707C856.244 673.895 855.99 674 855.724 674Z" fill="#606060"/>
</g>
<defs>
<clipPath id="clip0_625_1160">
<rect width="856.122" height="674" fill="white" transform="translate(0.602356)"/>
</clipPath>
</defs>
</svg>
