<svg width="729" height="525" viewBox="0 0 729 525" fill="none" xmlns="http://www.w3.org/2000/svg">
<g clip-path="url(#clip0_625_1159)">
<path d="M711.837 523.574H274.837C270.33 523.569 266.008 521.776 262.821 518.589C259.634 515.402 257.842 511.081 257.837 506.574V17.574C257.842 13.0669 259.634 8.74578 262.821 5.55876C266.008 2.37174 270.33 0.579048 274.837 0.573975H711.837C716.344 0.579048 720.665 2.37174 723.852 5.55876C727.039 8.74578 728.832 13.0669 728.837 17.574V506.574C728.832 511.081 727.039 515.402 723.852 518.589C720.665 521.776 716.344 523.569 711.837 523.574ZM274.837 2.57397C270.86 2.57847 267.047 4.16026 264.235 6.97234C261.423 9.78441 259.841 13.5971 259.837 17.574V506.574C259.841 510.551 261.423 514.364 264.235 517.176C267.047 519.988 270.86 521.569 274.837 521.574H711.837C715.814 521.569 719.626 519.988 722.438 517.176C725.25 514.364 726.832 510.551 726.837 506.574V17.574C726.832 13.5971 725.25 9.78441 722.438 6.97234C719.626 4.16026 715.814 2.57847 711.837 2.57397H274.837Z" fill="#606060"/>
<path d="M727.837 42.1643H258.837V44.1643H727.837V42.1643Z" fill="#606060"/>
<path d="M281.837 30.574C286.255 30.574 289.837 26.9923 289.837 22.574C289.837 18.1557 286.255 14.574 281.837 14.574C277.418 14.574 273.837 18.1557 273.837 22.574C273.837 26.9923 277.418 30.574 281.837 30.574Z" fill="#606060"/>
<path d="M306.837 30.574C311.255 30.574 314.837 26.9923 314.837 22.574C314.837 18.1557 311.255 14.574 306.837 14.574C302.418 14.574 298.837 18.1557 298.837 22.574C298.837 26.9923 302.418 30.574 306.837 30.574Z" fill="#606060"/>
<path d="M331.837 30.574C336.255 30.574 339.837 26.9923 339.837 22.574C339.837 18.1557 336.255 14.574 331.837 14.574C327.418 14.574 323.837 18.1557 323.837 22.574C323.837 26.9923 327.418 30.574 331.837 30.574Z" fill="#606060"/>
<path d="M649.337 115.574H337.337C333.889 115.574 330.582 114.204 328.144 111.766C325.706 109.328 324.337 106.022 324.337 102.574C324.337 99.1262 325.706 95.8196 328.144 93.3816C330.582 90.9436 333.889 89.574 337.337 89.574H649.337C652.784 89.574 656.091 90.9436 658.529 93.3816C660.967 95.8196 662.337 99.1262 662.337 102.574C662.337 106.022 660.967 109.328 658.529 111.766C656.091 114.204 652.784 115.574 649.337 115.574ZM337.337 91.574C334.419 91.574 331.621 92.7329 329.559 94.7958C327.496 96.8587 326.337 99.6566 326.337 102.574C326.337 105.491 327.496 108.289 329.559 110.352C331.621 112.415 334.419 113.574 337.337 113.574H649.337C652.254 113.574 655.052 112.415 657.115 110.352C659.178 108.289 660.337 105.491 660.337 102.574C660.337 99.6566 659.178 96.8587 657.115 94.7958C655.052 92.7329 652.254 91.574 649.337 91.574H337.337Z" fill="#606060"/>
<path d="M572.191 218.165H430.191C428.069 218.165 426.034 217.322 424.534 215.821C423.034 214.321 422.191 212.286 422.191 210.165C422.191 208.043 423.034 206.008 424.534 204.508C426.034 203.007 428.069 202.165 430.191 202.165H572.191C574.313 202.165 576.347 203.007 577.848 204.508C579.348 206.008 580.191 208.043 580.191 210.165C580.191 212.286 579.348 214.321 577.848 215.821C576.347 217.322 574.313 218.165 572.191 218.165Z" fill="#BBBBBB"/>
<path d="M654.191 245.165H430.191C428.069 245.165 426.034 244.322 424.534 242.821C423.034 241.321 422.191 239.286 422.191 237.165C422.191 235.043 423.034 233.008 424.534 231.508C426.034 230.007 428.069 229.165 430.191 229.165H654.191C656.313 229.165 658.347 230.007 659.848 231.508C661.348 233.008 662.191 235.043 662.191 237.165C662.191 239.286 661.348 241.321 659.848 242.821C658.347 244.322 656.313 245.165 654.191 245.165Z" fill="#BBBBBB"/>
<path d="M376.982 246.665H333.982C331.464 246.662 329.049 245.66 327.268 243.879C325.487 242.098 324.485 239.683 324.482 237.165V210.165C324.485 207.646 325.487 205.231 327.268 203.45C329.049 201.669 331.464 200.667 333.982 200.665H376.982C379.501 200.667 381.916 201.669 383.697 203.45C385.478 205.231 386.479 207.646 386.482 210.165V237.165C386.479 239.683 385.478 242.098 383.697 243.879C381.916 245.66 379.501 246.662 376.982 246.665ZM333.982 202.665C331.994 202.667 330.088 203.458 328.681 204.864C327.275 206.27 326.485 208.176 326.482 210.165V237.165C326.485 239.153 327.275 241.059 328.681 242.465C330.088 243.871 331.994 244.662 333.982 244.665H376.982C378.971 244.662 380.877 243.871 382.283 242.465C383.689 241.059 384.48 239.153 384.482 237.165V210.165C384.48 208.176 383.689 206.27 382.283 204.864C380.877 203.458 378.971 202.667 376.982 202.665H333.982Z" fill="#BBBBBB"/>
<path d="M572.191 313.165H430.191C428.069 313.165 426.034 312.322 424.534 310.821C423.034 309.321 422.191 307.286 422.191 305.165C422.191 303.043 423.034 301.008 424.534 299.508C426.034 298.007 428.069 297.165 430.191 297.165H572.191C574.313 297.165 576.347 298.007 577.848 299.508C579.348 301.008 580.191 303.043 580.191 305.165C580.191 307.286 579.348 309.321 577.848 310.821C576.347 312.322 574.313 313.165 572.191 313.165Z" fill="#BBBBBB"/>
<path d="M654.191 340.165H430.191C428.069 340.165 426.034 339.322 424.534 337.821C423.034 336.321 422.191 334.286 422.191 332.165C422.191 330.043 423.034 328.008 424.534 326.508C426.034 325.007 428.069 324.165 430.191 324.165H654.191C656.313 324.165 658.347 325.007 659.848 326.508C661.348 328.008 662.191 330.043 662.191 332.165C662.191 334.286 661.348 336.321 659.848 337.821C658.347 339.322 656.313 340.165 654.191 340.165Z" fill="#BBBBBB"/>
<path d="M376.982 341.665H333.982C331.464 341.662 329.049 340.66 327.268 338.879C325.487 337.098 324.485 334.683 324.482 332.165V305.165C324.485 302.646 325.487 300.231 327.268 298.45C329.049 296.669 331.464 295.667 333.982 295.665H376.982C379.501 295.667 381.916 296.669 383.697 298.45C385.478 300.231 386.479 302.646 386.482 305.165V332.165C386.479 334.683 385.478 337.098 383.697 338.879C381.916 340.66 379.501 341.662 376.982 341.665ZM333.982 297.665C331.994 297.667 330.088 298.458 328.681 299.864C327.275 301.27 326.485 303.176 326.482 305.165V332.165C326.485 334.153 327.275 336.059 328.681 337.465C330.088 338.871 331.994 339.662 333.982 339.665H376.982C378.971 339.662 380.877 338.871 382.283 337.465C383.689 336.059 384.48 334.153 384.482 332.165V305.165C384.48 303.176 383.689 301.27 382.283 299.864C380.877 298.458 378.971 297.667 376.982 297.665H333.982Z" fill="#BBBBBB"/>
<path d="M572.191 408.165H430.191C428.069 408.165 426.034 407.322 424.534 405.821C423.034 404.321 422.191 402.286 422.191 400.165C422.191 398.043 423.034 396.008 424.534 394.508C426.034 393.007 428.069 392.165 430.191 392.165H572.191C574.313 392.165 576.347 393.007 577.848 394.508C579.348 396.008 580.191 398.043 580.191 400.165C580.191 402.286 579.348 404.321 577.848 405.821C576.347 407.322 574.313 408.165 572.191 408.165Z" fill="#EAEAEA"/>
<path d="M654.191 435.165H430.191C428.069 435.165 426.034 434.322 424.534 432.821C423.034 431.321 422.191 429.286 422.191 427.165C422.191 425.043 423.034 423.008 424.534 421.508C426.034 420.007 428.069 419.165 430.191 419.165H654.191C656.313 419.165 658.347 420.007 659.848 421.508C661.348 423.008 662.191 425.043 662.191 427.165C662.191 429.286 661.348 431.321 659.848 432.821C658.347 434.322 656.313 435.165 654.191 435.165Z" fill="#EAEAEA"/>
<path d="M376.982 436.665H333.982C331.464 436.662 329.049 435.66 327.268 433.879C325.487 432.098 324.485 429.683 324.482 427.165V400.165C324.485 397.646 325.487 395.231 327.268 393.45C329.049 391.669 331.464 390.667 333.982 390.665H376.982C379.501 390.667 381.916 391.669 383.697 393.45C385.478 395.231 386.479 397.646 386.482 400.165V427.165C386.479 429.683 385.478 432.098 383.697 433.879C381.916 435.66 379.501 436.662 376.982 436.665Z" fill="#EAEAEA"/>
<path d="M355.482 238.403L353.167 236.314C344.944 228.765 339.516 223.865 339.516 217.761C339.495 216.6 339.708 215.446 340.142 214.369C340.575 213.291 341.22 212.311 342.039 211.487C342.858 210.664 343.834 210.013 344.909 209.573C345.984 209.133 347.136 208.913 348.297 208.926C349.668 208.933 351.021 209.239 352.261 209.821C353.502 210.404 354.601 211.25 355.482 212.3C356.363 211.25 357.462 210.404 358.703 209.821C359.944 209.239 361.297 208.933 362.667 208.926C363.829 208.913 364.981 209.133 366.056 209.573C367.131 210.013 368.107 210.664 368.925 211.487C369.744 212.311 370.389 213.291 370.823 214.369C371.256 215.446 371.469 216.6 371.449 217.761C371.449 223.865 366.02 228.765 357.798 236.314L355.482 238.403Z" fill="#606060"/>
<path d="M355.482 333.403L353.167 331.314C344.944 323.765 339.516 318.865 339.516 312.761C339.495 311.6 339.708 310.446 340.142 309.369C340.575 308.291 341.22 307.311 342.039 306.487C342.858 305.664 343.834 305.013 344.909 304.573C345.984 304.133 347.136 303.913 348.297 303.926C349.668 303.933 351.021 304.239 352.261 304.821C353.502 305.404 354.601 306.25 355.482 307.3C356.363 306.25 357.462 305.404 358.703 304.821C359.944 304.239 361.297 303.933 362.667 303.926C363.829 303.913 364.981 304.133 366.056 304.573C367.131 305.013 368.107 305.664 368.925 306.487C369.744 307.311 370.389 308.291 370.823 309.369C371.256 310.446 371.469 311.6 371.449 312.761C371.449 318.865 366.02 323.765 357.798 331.314L355.482 333.403Z" fill="#606060"/>
<path d="M173.821 317.421H130.821C128.302 317.419 125.887 316.417 124.107 314.636C122.326 312.855 121.324 310.44 121.321 307.921V280.921C121.324 278.403 122.326 275.988 124.107 274.207C125.887 272.426 128.302 271.424 130.821 271.421H173.821C176.34 271.424 178.754 272.426 180.535 274.207C182.316 275.988 183.318 278.403 183.321 280.921V307.921C183.318 310.44 182.316 312.855 180.535 314.636C178.754 316.417 176.34 317.419 173.821 317.421ZM130.821 273.421C128.832 273.424 126.926 274.215 125.52 275.621C124.114 277.027 123.323 278.933 123.321 280.921V307.921C123.323 309.91 124.114 311.816 125.52 313.222C126.926 314.628 128.832 315.419 130.821 315.421H173.821C175.809 315.419 177.716 314.628 179.122 313.222C180.528 311.816 181.319 309.91 181.321 307.921V280.921C181.319 278.933 180.528 277.027 179.122 275.621C177.716 274.215 175.809 273.424 173.821 273.421H130.821Z" fill="#606060"/>
<path d="M152.321 309.16L150.005 307.071C141.783 299.522 136.354 294.622 136.354 288.518C136.334 287.357 136.547 286.203 136.98 285.126C137.414 284.048 138.059 283.068 138.878 282.244C139.697 281.421 140.672 280.77 141.747 280.33C142.822 279.89 143.975 279.67 145.136 279.683C146.507 279.69 147.859 279.996 149.1 280.579C150.341 281.161 151.44 282.007 152.321 283.057C153.202 282.007 154.301 281.161 155.542 280.579C156.783 279.996 158.135 279.69 159.506 279.683C160.667 279.67 161.82 279.89 162.895 280.33C163.97 280.77 164.945 281.421 165.764 282.244C166.583 283.068 167.228 284.048 167.662 285.126C168.095 286.203 168.308 287.357 168.287 288.518C168.287 294.622 162.859 299.522 154.636 307.071L152.321 309.16Z" fill="#606060"/>
<path d="M127.455 512.68L138.577 510.034L133.665 465.876L117.25 469.781L127.455 512.68Z" fill="#FFB8B8"/>
<path d="M162.483 515.259L127.528 523.574L124.316 510.069L145.765 504.967C147.538 504.545 149.378 504.476 151.178 504.765C152.978 505.054 154.703 505.695 156.255 506.651C157.808 507.606 159.157 508.859 160.225 510.336C161.294 511.813 162.061 513.486 162.483 515.259Z" fill="#404040"/>
<path d="M116.538 484.246L92.3829 401.46L122.568 393.973L140.276 481.649C140.406 482.291 140.394 482.954 140.241 483.591C140.088 484.228 139.797 484.824 139.39 485.338C138.983 485.851 138.468 486.269 137.882 486.563C137.297 486.856 136.654 487.019 135.999 487.038L120.992 487.484C120.947 487.485 120.902 487.486 120.857 487.486C119.883 487.486 118.936 487.17 118.158 486.585C117.379 486.001 116.811 485.18 116.538 484.246Z" fill="#404040"/>
<path d="M58.5802 512.958L70.0122 512.957L75.4492 468.861L58.5762 468.863L58.5802 512.958Z" fill="#FFB8B8"/>
<path d="M92.0613 523.571L56.1316 523.574L56.1303 509.692L78.1781 509.69C81.8598 509.69 85.3909 511.152 87.9945 513.755C90.5981 516.358 92.0609 519.889 92.0613 523.571Z" fill="#404040"/>
<path d="M56.5728 495.825C56.1527 495.418 55.8175 494.932 55.5867 494.395C55.3559 493.858 55.2341 493.28 55.2284 492.695L44.8128 410.11C44.8086 408.919 45.2761 407.775 46.1132 406.927C46.9503 406.08 48.089 405.598 49.2801 405.588L72.5284 405.419H72.5616C73.7421 405.423 74.8744 405.888 75.7155 406.717C76.5565 407.545 77.0394 408.67 77.0606 409.851L78.2964 491.205C78.3149 492.392 77.8631 493.539 77.0396 494.394C76.2161 495.249 75.0878 495.744 73.9007 495.771L59.7879 497.112C59.7662 497.113 59.7444 497.113 59.7227 497.113C58.5439 497.116 57.4118 496.653 56.5728 495.825Z" fill="#404040"/>
<path d="M61.5549 222.483C75.1195 222.483 86.1159 211.487 86.1159 197.922C86.1159 184.357 75.1195 173.361 61.5549 173.361C47.9902 173.361 36.9938 184.357 36.9938 197.922C36.9938 211.487 47.9902 222.483 61.5549 222.483Z" fill="#FFB8B8"/>
<path d="M29.1978 405.796C13.2174 393.31 13.3866 378.743 18.8394 359.287C20.3755 353.806 22.0335 348.251 23.7886 342.369C31.9436 315.044 41.1866 284.073 37.6775 258.501L38.1729 258.433L37.6775 258.501C36.7164 251.497 39.1663 244.13 44.3987 238.289C49.6314 232.447 56.6744 229.21 63.7542 229.393C70.8216 229.582 77.6939 233.194 82.6084 239.306C87.4991 245.387 89.8333 266.771 90.5252 269.836C93.7017 283.903 95.6189 292.394 96.9939 305.939C98.6202 321.952 118.096 369.83 124.303 377.859C125.95 379.978 127.129 382.423 127.763 385.031C128.397 387.64 128.47 390.353 127.98 392.992C127.522 395.502 126.53 397.885 125.072 399.979C123.613 402.073 121.721 403.828 119.524 405.127C109.452 411.284 98.3849 415.639 86.8182 417.998C81.8008 418.971 76.7019 419.461 71.5911 419.463C55.7342 419.463 40.5828 414.692 29.1978 405.796Z" fill="#606060"/>
<path d="M131.335 313.264C130.699 312.049 129.805 310.989 128.715 310.158C127.624 309.327 126.365 308.745 125.026 308.453C123.687 308.161 122.299 308.166 120.962 308.468C119.625 308.77 118.371 309.362 117.287 310.201L98.6755 299.581L89.4634 309.317L115.957 323.945C117.488 325.673 119.599 326.778 121.89 327.053C124.182 327.327 126.495 326.752 128.39 325.435C130.286 324.118 131.633 322.152 132.176 319.909C132.718 317.666 132.419 315.301 131.335 313.264V313.264Z" fill="#FFB8B8"/>
<path d="M102.964 320.462L69.6065 309.983C65.1279 308.566 61.1918 305.809 58.3291 302.084C55.4663 298.36 53.8148 293.847 53.5972 289.155L52.1619 256.744C52.0813 254.92 52.3692 253.1 53.0084 251.39C53.6477 249.681 54.6252 248.118 55.8824 246.795C57.1396 245.472 58.6507 244.416 60.3254 243.691C62 242.965 63.8038 242.585 65.6288 242.573C67.4538 242.56 69.2626 242.916 70.9468 243.619C72.6311 244.322 74.1563 245.357 75.4312 246.663C76.7061 247.969 77.7045 249.519 78.3667 251.219C79.029 252.92 79.3413 254.737 79.2852 256.561L78.3678 286.381L113.869 300.859C114.496 301.115 115.057 301.509 115.511 302.012C115.964 302.514 116.299 303.113 116.489 303.762C116.679 304.412 116.72 305.096 116.609 305.764C116.498 306.432 116.238 307.066 115.847 307.62L107.99 318.763C107.442 319.543 106.659 320.129 105.755 320.435C104.851 320.741 103.873 320.75 102.964 320.462H102.964Z" fill="#404040"/>
<path d="M21.9722 228.485C23.0945 221.754 23.0533 214.778 23.0132 208.03C23.0025 206.199 22.9915 204.368 23.0027 202.54C23.055 194.047 23.5821 185.044 27.0545 176.757C30.8338 167.737 37.8323 161.224 45.7757 159.334C54.7313 157.201 64.4488 161.916 67.3743 169.679C69.3083 168.587 71.4606 167.938 73.6759 167.778C75.8913 167.618 78.1145 167.952 80.1851 168.756C82.2556 169.56 84.122 170.813 85.6495 172.426C87.177 174.038 88.3275 175.97 89.018 178.081C89.7085 180.192 89.9218 182.43 89.6425 184.633C89.3632 186.837 88.5983 188.951 87.403 190.823C86.2076 192.695 84.6116 194.278 82.7301 195.458C80.8487 196.639 78.7286 197.387 76.523 197.649L76.1478 197.682L73.2213 190.076C73.2047 190.21 73.1888 190.344 73.1727 190.48C72.9864 192.057 72.7938 193.688 71.4918 194.63C69.8663 195.805 67.8419 199.675 68.4334 203.595C68.8022 205.601 69.3518 207.57 70.0755 209.477C70.8798 211.57 71.4636 213.742 71.8177 215.956C72.1897 218.795 71.4469 221.667 69.7454 223.97C69.2411 224.642 68.6052 225.204 67.8765 225.622C67.1478 226.04 66.3415 226.306 65.5069 226.402L32.5191 229.813L31.0443 218.795L21.6609 230.351L21.9722 228.485Z" fill="#404040"/>
<path d="M193.49 524.165H1.49017C1.22496 524.165 0.970602 524.059 0.783066 523.872C0.595529 523.684 0.490173 523.43 0.490173 523.165C0.490173 522.899 0.595529 522.645 0.783066 522.457C0.970602 522.27 1.22496 522.165 1.49017 522.165H193.49C193.755 522.165 194.01 522.27 194.197 522.457C194.385 522.645 194.49 522.899 194.49 523.165C194.49 523.43 194.385 523.684 194.197 523.872C194.01 524.059 193.755 524.165 193.49 524.165Z" fill="#BBBBBB"/>
</g>
<defs>
<clipPath id="clip0_625_1159">
<rect width="728.346" height="523.591" fill="white" transform="translate(0.490173 0.573975)"/>
</clipPath>
</defs>
</svg>
