<svg width="568" height="519" viewBox="0 0 568 519" fill="none" xmlns="http://www.w3.org/2000/svg">
<g clip-path="url(#clip0_625_1156)">
<path d="M488.868 48.4036L13.629 186.869L26.2167 230.072L501.456 91.6072L488.868 48.4036Z" fill="#606060"/>
<path d="M70.4074 385.318L0.360857 144.905C-0.158448 143.122 0.0515957 141.207 0.94475 139.579C1.8379 137.952 3.34101 136.746 5.12343 136.226L468.842 1.1178C470.624 0.600237 472.539 0.810993 474.166 1.70383C475.793 2.59666 477 4.09862 477.52 5.88L539.576 218.869L537.656 219.428L475.6 6.43958C475.227 5.16768 474.366 4.09547 473.204 3.45782C472.042 2.82018 470.674 2.6691 469.401 3.0377L5.68288 138.146C4.40972 138.517 3.33607 139.379 2.69811 140.541C2.06014 141.704 1.91011 143.072 2.28102 144.345L72.3275 384.758L70.4074 385.318Z" fill="#606060"/>
<path d="M436.94 219.859C435.533 219.857 434.165 219.4 433.039 218.556C431.914 217.712 431.092 216.526 430.697 215.175L418.948 174.852C418.468 173.197 418.664 171.419 419.493 169.909C420.322 168.398 421.717 167.278 423.371 166.794L463.694 155.045C465.349 154.565 467.127 154.761 468.638 155.59C470.149 156.419 471.269 157.814 471.753 159.468L483.501 199.791C483.981 201.446 483.785 203.224 482.956 204.735C482.127 206.246 480.733 207.366 479.079 207.85L438.756 219.598C438.166 219.771 437.555 219.858 436.94 219.859Z" fill="#606060"/>
<path d="M69.3246 145.648C69.2039 145.234 69.0603 144.827 68.8945 144.428C67.767 141.692 65.6681 139.469 63.001 138.186C60.3339 136.903 57.2868 136.651 54.4452 137.478C51.6036 138.306 49.168 140.154 47.6063 142.668C46.0447 145.182 45.4672 148.185 45.9848 151.098C46.0575 151.524 46.1543 151.944 46.2748 152.359C47.0051 154.851 48.5231 157.04 50.6016 158.598C52.6801 160.155 55.2072 160.997 57.8046 160.998C58.9386 161.001 60.067 160.839 61.1547 160.519C64.2076 159.626 66.7822 157.56 68.3137 154.772C69.8453 151.985 70.2089 148.704 69.3246 145.648ZM60.5947 158.598C58.0486 159.337 55.3135 159.037 52.989 157.762C50.6645 156.487 48.9404 154.343 48.1948 151.799C48.0777 151.384 47.9841 150.963 47.9145 150.539C47.5394 148.138 48.0517 145.682 49.3555 143.632C50.6593 141.581 52.6653 140.076 54.9986 139.397C57.3318 138.718 59.8325 138.912 62.0329 139.943C64.2333 140.974 65.9829 142.771 66.9545 144.998C67.1356 145.39 67.2861 145.794 67.4047 146.208C68.1426 148.755 67.8399 151.489 66.5631 153.812C65.2863 156.136 63.1397 157.857 60.5947 158.599V158.598Z" fill="#606060"/>
<path d="M39.8922 154.219C39.2522 152.021 39.3137 149.678 40.068 147.517C40.8224 145.356 42.232 143.484 44.1005 142.161C42.3499 142.076 40.6043 142.41 39.009 143.136C37.4137 143.862 36.015 144.959 34.9294 146.335C33.8437 147.711 33.1026 149.326 32.7678 151.047C32.4329 152.767 32.514 154.543 33.0043 156.225C33.4945 157.908 34.3798 159.449 35.5863 160.721C36.7928 161.992 38.2857 162.957 39.9405 163.534C41.5953 164.112 43.3641 164.285 45.0997 164.041C46.8352 163.796 48.4873 163.141 49.9181 162.128C47.6318 162.017 45.4372 161.195 43.6401 159.777C41.843 158.359 40.5329 156.416 39.8922 154.219Z" fill="#606060"/>
<path d="M350.754 203.779C350.542 203.013 350.18 202.298 349.69 201.672C349.201 201.047 348.592 200.524 347.9 200.134C347.208 199.744 346.446 199.494 345.658 199.399C344.869 199.303 344.07 199.365 343.305 199.579L276.915 218.149L269.765 220.149H314.665L321.814 218.149L346.564 211.229C348.107 210.795 349.415 209.767 350.201 208.37C350.986 206.974 351.185 205.322 350.754 203.779Z" fill="#BBBBBB"/>
<path d="M303.785 189.909C303.352 188.365 302.324 187.057 300.927 186.271C299.53 185.485 297.878 185.287 296.334 185.719L196.715 213.579C195.323 213.973 194.117 214.852 193.316 216.056C192.515 217.261 192.17 218.712 192.345 220.149H218.135L225.294 218.149L299.595 197.369C301.139 196.934 302.447 195.904 303.233 194.505C304.018 193.107 304.217 191.453 303.785 189.909Z" fill="#BBBBBB"/>
<path d="M560.249 218.146H77.2481C75.3922 218.148 73.613 218.887 72.3007 220.199C70.9884 221.511 70.2502 223.29 70.2481 225.146V511.146C70.2501 513.002 70.9882 514.782 72.3006 516.094C73.6129 517.406 75.3922 518.144 77.2481 518.146H560.249C562.104 518.144 563.884 517.406 565.196 516.094C566.508 514.782 567.246 513.002 567.249 511.146V225.146C567.246 223.291 566.508 221.511 565.196 220.199C563.884 218.887 562.104 218.149 560.249 218.146ZM565.249 511.146C565.248 512.472 564.721 513.744 563.784 514.681C562.846 515.619 561.574 516.146 560.249 516.146H77.2481C75.9222 516.146 74.6507 515.619 73.7131 514.681C72.7755 513.744 72.2486 512.472 72.2481 511.146V225.146C72.2487 223.82 72.7756 222.549 73.7132 221.611C74.6508 220.674 75.9222 220.147 77.2481 220.146H560.249C561.574 220.147 562.846 220.674 563.783 221.611C564.721 222.549 565.248 223.82 565.249 225.146V511.146Z" fill="#606060"/>
<path d="M124.245 257.149C121.871 257.149 119.551 256.445 117.578 255.126C115.604 253.808 114.066 251.933 113.158 249.741C112.25 247.548 112.012 245.135 112.475 242.807C112.938 240.48 114.081 238.342 115.759 236.663C117.438 234.985 119.576 233.842 121.903 233.379C124.231 232.916 126.644 233.154 128.837 234.062C131.029 234.97 132.904 236.508 134.222 238.482C135.541 240.455 136.245 242.775 136.245 245.149C136.241 248.33 134.975 251.38 132.726 253.63C130.476 255.879 127.426 257.145 124.245 257.149ZM124.245 235.149C122.267 235.149 120.333 235.735 118.689 236.834C117.044 237.933 115.763 239.494 115.006 241.322C114.249 243.149 114.051 245.16 114.437 247.099C114.823 249.039 115.775 250.821 117.174 252.22C118.572 253.618 120.354 254.571 122.294 254.956C124.233 255.342 126.244 255.144 128.071 254.387C129.899 253.63 131.46 252.349 132.559 250.704C133.658 249.06 134.245 247.126 134.245 245.149C134.242 242.497 133.187 239.956 131.312 238.081C129.438 236.206 126.896 235.152 124.245 235.149Z" fill="#606060"/>
<path d="M105.592 245.149C105.593 242.859 106.307 240.628 107.636 238.764C108.965 236.9 110.842 235.497 113.005 234.75C111.349 234.178 109.579 234.011 107.844 234.262C106.11 234.512 104.46 235.174 103.033 236.191C101.606 237.209 100.442 238.552 99.6395 240.11C98.8368 241.669 98.418 243.396 98.418 245.149C98.418 246.901 98.8368 248.629 99.6395 250.187C100.442 251.745 101.606 253.088 103.033 254.106C104.46 255.123 106.11 255.785 107.844 256.035C109.579 256.286 111.349 256.119 113.005 255.547C110.842 254.8 108.965 253.397 107.636 251.533C106.307 249.67 105.593 247.438 105.592 245.149Z" fill="#606060"/>
<path d="M172.888 386.927C170.502 386.924 168.215 385.975 166.527 384.288C164.84 382.6 163.891 380.313 163.888 377.927V350.927C163.888 348.54 164.836 346.251 166.524 344.563C168.212 342.875 170.501 341.927 172.888 341.927C175.275 341.927 177.564 342.875 179.252 344.563C180.94 346.251 181.888 348.54 181.888 350.927V377.927C181.886 380.313 180.936 382.6 179.249 384.288C177.562 385.975 175.274 386.924 172.888 386.927Z" fill="#606060"/>
<path d="M196.888 386.927C194.502 386.924 192.215 385.975 190.527 384.288C188.84 382.6 187.891 380.313 187.888 377.927V350.927C187.888 348.54 188.836 346.251 190.524 344.563C192.212 342.875 194.501 341.927 196.888 341.927C199.275 341.927 201.564 342.875 203.252 344.563C204.94 346.251 205.888 348.54 205.888 350.927V377.927C205.886 380.313 204.936 382.6 203.249 384.288C201.562 385.975 199.274 386.924 196.888 386.927Z" fill="#606060"/>
<path d="M220.888 386.927C218.502 386.924 216.215 385.975 214.527 384.288C212.84 382.6 211.891 380.313 211.888 377.927V350.927C211.888 348.54 212.836 346.251 214.524 344.563C216.212 342.875 218.501 341.927 220.888 341.927C223.275 341.927 225.564 342.875 227.252 344.563C228.94 346.251 229.888 348.54 229.888 350.927V377.927C229.885 380.313 228.936 382.6 227.249 384.288C225.562 385.975 223.274 386.924 220.888 386.927Z" fill="#606060"/>
<path d="M257.888 386.927C255.502 386.924 253.215 385.975 251.527 384.288C249.84 382.6 248.891 380.313 248.888 377.927V350.927C248.888 348.54 249.836 346.251 251.524 344.563C253.212 342.875 255.501 341.927 257.888 341.927C260.275 341.927 262.564 342.875 264.252 344.563C265.94 346.251 266.888 348.54 266.888 350.927V377.927C266.885 380.313 265.936 382.6 264.249 384.288C262.562 385.975 260.274 386.924 257.888 386.927Z" fill="#606060"/>
<path d="M281.888 386.927C279.502 386.924 277.215 385.975 275.527 384.288C273.84 382.6 272.891 380.313 272.888 377.927V350.927C272.888 348.54 273.836 346.251 275.524 344.563C277.212 342.875 279.501 341.927 281.888 341.927C284.275 341.927 286.564 342.875 288.252 344.563C289.94 346.251 290.888 348.54 290.888 350.927V377.927C290.885 380.313 289.936 382.6 288.249 384.288C286.562 385.975 284.274 386.924 281.888 386.927Z" fill="#606060"/>
<path d="M305.888 386.927C303.502 386.924 301.215 385.975 299.527 384.288C297.84 382.6 296.891 380.313 296.888 377.927V350.927C296.888 348.54 297.836 346.251 299.524 344.563C301.212 342.875 303.501 341.927 305.888 341.927C308.275 341.927 310.564 342.875 312.252 344.563C313.94 346.251 314.888 348.54 314.888 350.927V377.927C314.885 380.313 313.936 382.6 312.249 384.288C310.562 385.975 308.274 386.924 305.888 386.927Z" fill="#606060"/>
<path d="M342.888 386.927C340.502 386.924 338.215 385.975 336.527 384.288C334.84 382.6 333.891 380.313 333.888 377.927V350.927C333.888 348.54 334.836 346.251 336.524 344.563C338.212 342.875 340.501 341.927 342.888 341.927C345.275 341.927 347.564 342.875 349.252 344.563C350.94 346.251 351.888 348.54 351.888 350.927V377.927C351.885 380.313 350.936 382.6 349.249 384.288C347.562 385.975 345.274 386.924 342.888 386.927Z" fill="#606060"/>
<path d="M366.888 386.927C364.502 386.924 362.215 385.975 360.527 384.288C358.84 382.6 357.891 380.313 357.888 377.927V350.927C357.888 348.54 358.836 346.251 360.524 344.563C362.212 342.875 364.501 341.927 366.888 341.927C369.275 341.927 371.564 342.875 373.252 344.563C374.94 346.251 375.888 348.54 375.888 350.927V377.927C375.885 380.313 374.936 382.6 373.249 384.288C371.562 385.975 369.274 386.924 366.888 386.927Z" fill="#606060"/>
<path d="M390.888 386.927C388.502 386.924 386.215 385.975 384.527 384.288C382.84 382.6 381.891 380.313 381.888 377.927V350.927C381.888 348.54 382.836 346.251 384.524 344.563C386.212 342.875 388.501 341.927 390.888 341.927C393.275 341.927 395.564 342.875 397.252 344.563C398.94 346.251 399.888 348.54 399.888 350.927V377.927C399.885 380.313 398.936 382.6 397.249 384.288C395.562 385.975 393.274 386.924 390.888 386.927Z" fill="#606060"/>
<path d="M427.888 386.927C425.502 386.924 423.215 385.975 421.527 384.288C419.84 382.6 418.891 380.313 418.888 377.927V350.927C418.888 348.54 419.836 346.251 421.524 344.563C423.212 342.875 425.501 341.927 427.888 341.927C430.275 341.927 432.564 342.875 434.252 344.563C435.94 346.251 436.888 348.54 436.888 350.927V377.927C436.885 380.313 435.936 382.6 434.249 384.288C432.562 385.975 430.274 386.924 427.888 386.927Z" fill="#606060"/>
<path d="M451.888 386.927C449.502 386.924 447.215 385.975 445.527 384.288C443.84 382.6 442.891 380.313 442.888 377.927V350.927C442.888 348.54 443.836 346.251 445.524 344.563C447.212 342.875 449.501 341.927 451.888 341.927C454.275 341.927 456.564 342.875 458.252 344.563C459.94 346.251 460.888 348.54 460.888 350.927V377.927C460.885 380.313 459.936 382.6 458.249 384.288C456.562 385.975 454.274 386.924 451.888 386.927Z" fill="#606060"/>
<path d="M475.888 386.927C473.502 386.924 471.215 385.975 469.527 384.288C467.84 382.6 466.891 380.313 466.888 377.927V350.927C466.888 348.54 467.836 346.251 469.524 344.563C471.212 342.875 473.501 341.927 475.888 341.927C478.275 341.927 480.564 342.875 482.252 344.563C483.94 346.251 484.888 348.54 484.888 350.927V377.927C484.885 380.313 483.936 382.6 482.249 384.288C480.562 385.975 478.274 386.924 475.888 386.927Z" fill="#606060"/>
<path d="M233.906 487.094H104.466C102.862 487.094 101.324 486.456 100.19 485.322C99.0557 484.188 98.4186 482.65 98.4186 481.046C98.4186 479.442 99.0557 477.904 100.19 476.77C101.324 475.636 102.862 474.999 104.466 474.999H233.906C235.51 474.999 237.048 475.636 238.182 476.77C239.316 477.904 239.954 479.442 239.954 481.046C239.954 482.65 239.316 484.188 238.182 485.322C237.048 486.456 235.51 487.094 233.906 487.094Z" fill="#EAEAEA"/>
<path d="M192.406 461.094H145.966C144.362 461.094 142.824 460.456 141.69 459.322C140.556 458.188 139.919 456.65 139.919 455.046C139.919 453.442 140.556 451.904 141.69 450.77C142.824 449.636 144.362 448.999 145.966 448.999H192.406C194.01 448.999 195.548 449.636 196.682 450.77C197.817 451.904 198.454 453.442 198.454 455.046C198.454 456.65 197.817 458.188 196.682 459.322C195.548 460.456 194.01 461.094 192.406 461.094Z" fill="#EAEAEA"/>
<path d="M564.888 277.927H71.8882V279.927H564.888V277.927Z" fill="#606060"/>
</g>
<defs>
<clipPath id="clip0_625_1156">
<rect width="567.17" height="517.31" fill="white" transform="translate(0.078186 0.83667)"/>
</clipPath>
</defs>
</svg>
