<svg width="340" height="235" viewBox="0 0 340 235" fill="none" xmlns="http://www.w3.org/2000/svg">
<g clip-path="url(#clip0_1105_2098)">
<path d="M46.6591 233.052C33.1387 229.533 21.1914 221.576 12.7321 210.458C4.27287 199.339 -0.208303 185.702 0.00691753 171.733C0.0605409 168.252 0.426479 164.699 1.88957 161.54C3.35265 158.382 6.07031 155.65 9.46979 154.902C13.1798 154.085 17.0947 155.755 19.8596 158.36C22.6244 160.965 24.4373 164.402 26.1052 167.815C36.1515 188.374 43.7844 210.432 46.6422 233.135L46.6591 233.052Z" fill="#CCCCCC"/>
<path d="M7.78687 155.588L14.8279 171.585L21.8688 187.583C24.0987 192.65 26.3244 197.718 28.6292 202.752C30.9138 207.74 33.2767 212.695 35.7974 217.569C38.3146 222.436 40.9899 227.224 43.8938 231.872C44.2554 232.451 44.6206 233.028 44.9893 233.602C45.2445 234 45.8823 233.631 45.6254 233.23C42.6658 228.617 39.9387 223.858 37.381 219.011C34.8205 214.159 32.4274 209.22 30.1226 204.242C27.8056 199.237 25.5776 194.192 23.3556 189.144C21.0167 183.831 18.6782 178.518 16.3401 173.205L9.2991 157.207L8.42289 155.216C8.23234 154.783 7.59749 155.157 7.78687 155.588Z" fill="white"/>
<path d="M43.722 233.163C35.7525 234.986 27.4016 234.081 20.0081 230.592C12.6146 227.103 6.60655 221.232 2.94713 213.922C2.03537 212.1 1.26606 210.157 1.173 208.122C1.07994 206.087 1.75342 203.935 3.31634 202.629C5.02203 201.203 7.50531 201.013 9.64408 201.619C11.7829 202.225 13.652 203.52 15.4394 204.842C26.2051 212.804 36.1231 222.196 43.7356 233.211L43.722 233.163Z" fill="#CCCCCC"/>
<path d="M2.62797 203.439L10.6023 209.844L18.5767 216.249C21.1022 218.278 23.6261 220.308 26.1815 222.299C28.7144 224.273 31.2786 226.207 33.9032 228.057C36.5241 229.904 39.2056 231.668 41.9681 233.297C42.3121 233.5 42.6573 233.701 43.0038 233.9C43.2437 234.037 43.4752 233.673 43.2337 233.535C40.4516 231.939 37.7511 230.204 35.1147 228.378C32.4754 226.55 29.8997 224.632 27.3591 222.67C24.805 220.697 22.2863 218.679 19.77 216.658C17.1214 214.531 14.4729 212.404 11.8246 210.276L3.8502 203.872L2.85783 203.074C2.64203 202.901 2.4135 203.267 2.62797 203.439Z" fill="white"/>
<path d="M336.921 0.610535H122.691C121.875 0.611441 121.092 0.936158 120.515 1.51344C119.937 2.09072 119.613 2.87341 119.612 3.68981V148.856C119.613 149.672 119.937 150.455 120.515 151.032C121.092 151.609 121.875 151.934 122.691 151.935H336.921C337.737 151.934 338.52 151.609 339.097 151.032C339.674 150.455 339.999 149.672 340 148.856V3.68981C339.999 2.87341 339.674 2.09072 339.097 1.51344C338.52 0.936158 337.737 0.611441 336.921 0.610535ZM339.12 148.856C339.12 149.439 338.888 149.998 338.476 150.411C338.063 150.823 337.504 151.055 336.921 151.055H122.691C122.108 151.055 121.549 150.823 121.136 150.411C120.724 149.998 120.492 149.439 120.492 148.856V3.68981C120.492 3.10654 120.724 2.54723 121.136 2.1348C121.549 1.72237 122.108 1.49056 122.691 1.49033H336.921C337.504 1.49056 338.063 1.72237 338.476 2.1348C338.888 2.54723 339.12 3.10654 339.12 3.68981V148.856Z" fill="#606060"/>
<path d="M339.56 12.9452H120.052V13.825H339.56V12.9452Z" fill="#606060"/>
<path d="M127.53 9.84837C128.988 9.84837 130.169 8.66668 130.169 7.20899C130.169 5.7513 128.988 4.56961 127.53 4.56961C126.072 4.56961 124.891 5.7513 124.891 7.20899C124.891 8.66668 126.072 9.84837 127.53 9.84837Z" fill="#606060"/>
<path d="M135.118 9.84837C136.576 9.84837 137.758 8.66668 137.758 7.20899C137.758 5.7513 136.576 4.56961 135.118 4.56961C133.661 4.56961 132.479 5.7513 132.479 7.20899C132.479 8.66668 133.661 9.84837 135.118 9.84837Z" fill="#606060"/>
<path d="M142.707 9.84837C144.164 9.84837 145.346 8.66668 145.346 7.20899C145.346 5.7513 144.164 4.56961 142.707 4.56961C141.249 4.56961 140.067 5.7513 140.067 7.20899C140.067 8.66668 141.249 9.84837 142.707 9.84837Z" fill="#606060"/>
<path d="M173.661 33.3828H136.71C135.893 33.3828 135.11 33.0584 134.533 32.4809C133.955 31.9035 133.631 31.1202 133.631 30.3035C133.631 29.4869 133.955 28.7037 134.533 28.1262C135.11 27.5487 135.893 27.2243 136.71 27.2243H173.661C174.478 27.2243 175.261 27.5487 175.839 28.1262C176.416 28.7037 176.741 29.4869 176.741 30.3035C176.741 31.1202 176.416 31.9035 175.839 32.4809C175.261 33.0584 174.478 33.3828 173.661 33.3828Z" fill="#CCCCCC"/>
<path d="M224.25 48.3393H136.71C135.893 48.3393 135.11 48.0148 134.533 47.4374C133.955 46.8599 133.631 46.0767 133.631 45.26C133.631 44.4433 133.955 43.6601 134.533 43.0826C135.11 42.5051 135.893 42.1807 136.71 42.1807H224.25C225.066 42.1807 225.849 42.5051 226.427 43.0826C227.004 43.6601 227.329 44.4433 227.329 45.26C227.329 46.0767 227.004 46.8599 226.427 47.4374C225.849 48.0148 225.066 48.3393 224.25 48.3393Z" fill="#CCCCCC"/>
<path d="M252.499 54.288C248.375 60.3002 245.972 67.3243 245.548 74.6025C245.124 81.8806 246.695 89.1363 250.093 95.5868C253.49 102.037 258.585 107.437 264.826 111.205C271.068 114.972 278.22 116.963 285.511 116.963V82.0178L252.499 54.288Z" fill="#606060"/>
<path d="M285.511 36.902C279.01 36.8978 272.605 38.479 266.853 41.5086C261.101 44.5381 256.174 48.9246 252.5 54.288L285.511 82.0178V36.902Z" fill="#CCCCCC"/>
<path d="M285.511 117.403H285.071V36.4621H285.511C296.244 36.4621 306.538 40.7259 314.128 48.3156C321.717 55.9053 325.981 66.1991 325.981 76.9326C325.981 87.666 321.717 97.9598 314.128 105.549C306.538 113.139 296.244 117.403 285.511 117.403ZM285.951 37.3443V116.521C296.374 116.405 306.331 112.183 313.661 104.771C320.99 97.3598 325.101 87.3565 325.101 76.9326C325.101 66.5087 320.99 56.5054 313.661 49.0937C306.331 41.682 296.374 37.4601 285.951 37.3443Z" fill="#606060"/>
<path d="M162.224 133.899H154.746C154.221 133.899 153.718 133.69 153.347 133.319C152.975 132.948 152.767 132.444 152.766 131.92V110.365C152.767 109.84 152.975 109.337 153.347 108.966C153.718 108.595 154.221 108.386 154.746 108.385H162.224C162.749 108.386 163.252 108.595 163.623 108.966C163.994 109.337 164.203 109.84 164.203 110.365V131.92C164.203 132.444 163.994 132.948 163.623 133.319C163.252 133.69 162.749 133.899 162.224 133.899Z" fill="#404040"/>
<path d="M184.219 133.899H176.74C176.215 133.899 175.712 133.69 175.341 133.319C174.97 132.948 174.761 132.444 174.761 131.92V100.247C174.761 99.7223 174.97 99.2191 175.341 98.848C175.712 98.4769 176.215 98.2682 176.74 98.2676H184.219C184.743 98.2682 185.247 98.4769 185.618 98.848C185.989 99.2191 186.197 99.7223 186.198 100.247V131.92C186.197 132.444 185.989 132.948 185.618 133.319C185.246 133.69 184.743 133.899 184.219 133.899Z" fill="#CCCCCC"/>
<path d="M206.214 133.899H198.735C198.211 133.899 197.707 133.69 197.336 133.319C196.965 132.948 196.756 132.444 196.756 131.92V91.4491C196.756 90.9243 196.965 90.4211 197.336 90.05C197.707 89.6789 198.211 89.4702 198.735 89.4696H206.214C206.738 89.4702 207.242 89.6789 207.613 90.05C207.984 90.4211 208.193 90.9243 208.193 91.4491V131.92C208.193 132.444 207.984 132.948 207.613 133.319C207.242 133.69 206.738 133.899 206.214 133.899Z" fill="#606060"/>
<path d="M162.224 134.119H154.745C154.162 134.118 153.603 133.886 153.191 133.474C152.779 133.062 152.547 132.503 152.546 131.92V83.531C152.547 82.9479 152.779 82.3888 153.191 81.9765C153.603 81.5641 154.162 81.3322 154.745 81.3315H162.224C162.807 81.3322 163.366 81.5641 163.778 81.9765C164.19 82.3888 164.422 82.9479 164.423 83.531V131.92C164.422 132.503 164.19 133.062 163.778 133.474C163.366 133.886 162.807 134.118 162.224 134.119ZM154.745 82.2113C154.395 82.2117 154.06 82.3508 153.813 82.5983C153.565 82.8457 153.426 83.1811 153.426 83.531V131.92C153.426 132.27 153.565 132.605 153.813 132.852C154.06 133.1 154.395 133.239 154.745 133.239H162.224C162.574 133.239 162.909 133.1 163.156 132.852C163.404 132.605 163.543 132.27 163.543 131.92V83.531C163.543 83.1811 163.404 82.8457 163.156 82.5983C162.909 82.3508 162.574 82.2117 162.224 82.2113H154.745Z" fill="#606060"/>
<path d="M184.219 134.119H176.74C176.157 134.118 175.598 133.886 175.186 133.474C174.774 133.062 174.542 132.503 174.541 131.92V83.531C174.542 82.9479 174.774 82.3888 175.186 81.9765C175.598 81.5641 176.157 81.3322 176.74 81.3315H184.219C184.802 81.3322 185.361 81.5641 185.773 81.9765C186.186 82.3888 186.418 82.9479 186.418 83.531V131.92C186.418 132.503 186.186 133.062 185.773 133.474C185.361 133.886 184.802 134.118 184.219 134.119ZM176.74 82.2113C176.391 82.2117 176.055 82.3508 175.808 82.5983C175.56 82.8457 175.421 83.1811 175.421 83.531V131.92C175.421 132.27 175.56 132.605 175.808 132.852C176.055 133.1 176.391 133.239 176.74 133.239H184.219C184.569 133.239 184.904 133.1 185.151 132.852C185.399 132.605 185.538 132.27 185.538 131.92V83.531C185.538 83.1811 185.399 82.8457 185.151 82.5983C184.904 82.3508 184.569 82.2117 184.219 82.2113H176.74Z" fill="#606060"/>
<path d="M206.213 134.119H198.735C198.152 134.118 197.593 133.886 197.181 133.474C196.768 133.062 196.536 132.503 196.536 131.92V83.531C196.536 82.9479 196.768 82.3888 197.181 81.9765C197.593 81.5641 198.152 81.3322 198.735 81.3315H206.213C206.796 81.3322 207.356 81.5641 207.768 81.9765C208.18 82.3888 208.412 82.9479 208.413 83.531V131.92C208.412 132.503 208.18 133.062 207.768 133.474C207.356 133.886 206.796 134.118 206.213 134.119ZM198.735 82.2113C198.385 82.2117 198.05 82.3508 197.802 82.5983C197.555 82.8457 197.416 83.1811 197.415 83.531V131.92C197.416 132.27 197.555 132.605 197.802 132.852C198.05 133.1 198.385 133.239 198.735 133.239H206.213C206.563 133.239 206.899 133.1 207.146 132.852C207.394 132.605 207.533 132.27 207.533 131.92V83.531C207.533 83.1811 207.394 82.8457 207.146 82.5983C206.899 82.3508 206.563 82.2117 206.213 82.2113H198.735Z" fill="#606060"/>
<path d="M49.4581 158.534C49.6291 157.911 49.6612 157.257 49.5522 156.62C49.4432 155.982 49.1958 155.377 48.8273 154.845C48.4589 154.314 47.9784 153.869 47.4197 153.544C46.861 153.218 46.2377 153.019 45.5937 152.96L41.8107 137.702L36.2739 143.708L40.7152 157.277C40.6882 158.365 41.0615 159.426 41.7642 160.257C42.4669 161.089 43.4503 161.634 44.5279 161.789C45.6056 161.944 46.7028 161.698 47.6114 161.098C48.5201 160.499 49.1772 159.586 49.4581 158.534Z" fill="#FFB8B8"/>
<path d="M39.3157 153.842C39.0591 153.735 38.8278 153.575 38.637 153.373C38.4463 153.17 38.3002 152.93 38.2083 152.668L31.8931 133.234C30.2614 128.566 30.3808 123.464 32.229 118.878L38.3165 103.765C38.4534 102.938 38.7519 102.147 39.1949 101.435C39.6379 100.724 40.2168 100.107 40.8985 99.6194C41.5802 99.1319 42.3512 98.7836 43.1676 98.5943C43.984 98.4051 44.8296 98.3786 45.6563 98.5163C46.4829 98.6541 47.2742 98.9535 47.9851 99.3973C48.696 99.8411 49.3124 100.421 49.7991 101.103C50.2858 101.785 50.6333 102.557 50.8216 103.373C51.01 104.19 51.0356 105.035 50.8969 105.862L42.4982 130.302L45.438 150.202C45.4771 150.607 45.3909 151.014 45.1911 151.368C44.9912 151.723 44.6874 152.007 44.3207 152.183L40.9296 153.801C40.5659 153.975 40.1579 154.033 39.7602 153.968C39.6075 153.944 39.4584 153.901 39.3157 153.842Z" fill="#404040"/>
<path d="M70.5341 228.672L75.9272 228.671L78.4927 207.87L70.5332 207.87L70.5341 228.672Z" fill="#FFB8B8"/>
<path d="M86.3286 233.679L69.3791 233.68L69.3788 227.131L79.7796 227.13C81.5165 227.13 83.1822 227.82 84.4103 229.048C85.6385 230.276 86.3285 231.942 86.3286 233.679Z" fill="#404040"/>
<path d="M43.7006 228.672L49.0937 228.671L51.6592 207.87L43.6997 207.87L43.7006 228.672Z" fill="#FFB8B8"/>
<path d="M59.4946 233.679L42.5451 233.68L42.5448 227.131L52.9457 227.13C54.6825 227.13 56.3482 227.82 57.5764 229.048C58.8045 230.276 59.4945 231.942 59.4946 233.679Z" fill="#404040"/>
<path d="M72.0086 143.89L76.7493 181.451C77.401 186.614 77.857 191.797 78.1173 196.999L79.3945 222.543C79.4064 222.782 79.3697 223.02 79.2868 223.243C79.2039 223.467 79.0763 223.671 78.912 223.844C78.7476 224.017 78.5499 224.154 78.3307 224.248C78.1115 224.342 77.8756 224.391 77.6371 224.391H70.442C70.0211 224.391 69.6141 224.24 69.2949 223.966C68.9757 223.691 68.7655 223.311 68.7023 222.895L62.2314 180.263C62.2002 180.058 62.0972 179.87 61.9408 179.733C61.7843 179.596 61.5844 179.519 61.3765 179.516C61.1687 179.512 60.9663 179.582 60.8052 179.714C60.6442 179.845 60.5349 180.03 60.4967 180.234L52.7011 221.987C52.624 222.363 52.4264 222.703 52.1385 222.955C51.8506 223.208 51.4881 223.36 51.1059 223.388L44.4837 223.808C44.2378 223.826 43.9909 223.792 43.759 223.709C43.5271 223.625 43.3153 223.494 43.1373 223.323C42.9594 223.153 42.8193 222.947 42.7262 222.718C42.633 222.49 42.5889 222.245 42.5966 221.999L44.735 153.567L72.0086 143.89Z" fill="#404040"/>
<path d="M51.0045 90.3895C56.9716 90.3895 61.8088 85.5522 61.8088 79.5852C61.8088 73.6181 56.9716 68.7809 51.0045 68.7809C45.0374 68.7809 40.2002 73.6181 40.2002 79.5852C40.2002 85.5522 45.0374 90.3895 51.0045 90.3895Z" fill="#FFB8B8"/>
<path d="M42.5353 154.447C45.1746 160.606 56.6119 165.005 59.2513 156.207C61.2925 149.406 69.3777 146.547 72.9452 145.601C73.3938 145.481 73.7773 145.19 74.0127 144.79C74.2482 144.39 74.3167 143.913 74.2035 143.463L64.2309 104.29C63.65 102.008 62.4932 99.9138 60.8711 98.207C59.2491 96.5002 57.216 95.2383 54.9666 94.5422C47.0399 92.0875 38.6819 97.1419 37.3401 105.328C36.9736 107.624 36.7401 109.939 36.6407 112.261C35.8135 129.545 40.7976 150.391 42.5353 154.447Z" fill="#606060"/>
<path d="M78.3384 154.436C78.2737 153.792 78.0687 153.171 77.7379 152.615C77.4071 152.06 76.9584 151.583 76.4236 151.22C75.8887 150.856 75.2807 150.615 74.6422 150.511C74.0038 150.408 73.3506 150.447 72.7285 150.623L63.7138 137.745L60.7061 145.34L69.7277 156.405C70.0938 157.43 70.8233 158.286 71.778 158.809C72.7327 159.333 73.8462 159.488 74.9076 159.245C75.969 159.002 76.9045 158.379 77.5368 157.492C78.1691 156.606 78.4543 155.519 78.3384 154.436Z" fill="#FFB8B8"/>
<path d="M67.1871 153.703C66.9091 153.695 66.6358 153.629 66.3851 153.509C66.1343 153.389 65.9117 153.217 65.7316 153.005L52.8528 137.14C49.6523 133.371 47.9298 128.567 48.0058 123.623L48.2541 107.332C48.0851 106.512 48.0794 105.666 48.2374 104.843C48.3954 104.021 48.7139 103.237 49.1748 102.538C49.6358 101.838 50.23 101.236 50.9236 100.766C51.6172 100.296 52.3966 99.9678 53.2172 99.7993C54.0378 99.6308 54.8836 99.6256 55.7062 99.7841C56.5289 99.9426 57.3122 100.262 58.0115 100.723C58.7108 101.184 59.3123 101.779 59.7817 102.473C60.2512 103.167 60.5793 103.946 60.7473 104.767L61.695 130.592L71.5917 148.105C71.7738 148.469 71.8397 148.88 71.7806 149.283C71.7215 149.685 71.5402 150.06 71.2613 150.356L68.6785 153.085C68.4014 153.377 68.0417 153.578 67.6474 153.661C67.4961 153.693 67.3416 153.707 67.1871 153.703Z" fill="#404040"/>
<path d="M42.8034 88.4223C43.0361 88.5603 43.2974 88.6429 43.5671 88.6636C43.8368 88.6844 44.1076 88.6428 44.3587 88.542C44.6097 88.4413 44.8342 88.2842 45.0148 88.0828C45.1954 87.8813 45.3272 87.6411 45.4 87.3806L45.406 87.356C45.6021 86.5359 45.4393 85.6797 45.383 84.8384C45.3267 83.9971 45.4091 83.073 45.982 82.4544C47.0501 81.3014 48.9502 81.9126 50.4947 81.6211C51.3993 81.4192 52.1993 80.8945 52.7451 80.1453C53.2908 79.3961 53.5448 78.4737 53.4596 77.5508C53.4376 77.3759 53.4031 77.2009 53.3644 77.0259C53.2678 76.5827 53.2753 76.123 53.3862 75.6831C53.4972 75.2432 53.7085 74.835 54.0038 74.4906C54.299 74.1461 54.6701 73.8748 55.0878 73.6979C55.5056 73.521 55.9587 73.4433 56.4115 73.471C57.9723 73.5602 59.657 74.0331 60.9484 72.8771C61.4218 72.4211 61.7505 71.8358 61.8934 71.1942C62.0363 70.5526 61.987 69.8831 61.7519 69.2693C61.0145 67.141 58.9305 66.0268 56.8682 65.4142C54.3176 64.6773 51.6348 64.5179 49.0149 64.9478C46.395 65.3777 43.9038 66.386 41.7224 67.8995C40.4198 68.8176 39.2033 69.9713 38.6481 71.4651C38.0929 72.959 38.3608 74.8437 39.6127 75.8298C38.6423 76.8573 37.9589 78.1217 37.6311 79.4965C37.3033 80.8712 37.3425 82.308 37.7448 83.6628C38.3632 85.6553 41.3143 87.5656 42.8034 88.4223Z" fill="#404040"/>
<path d="M121.458 234.389H4.8857C4.76903 234.389 4.65714 234.343 4.57464 234.261C4.49215 234.178 4.4458 234.066 4.4458 233.95C4.4458 233.833 4.49215 233.721 4.57464 233.638C4.65714 233.556 4.76903 233.51 4.8857 233.51H121.458C121.575 233.51 121.687 233.556 121.769 233.638C121.852 233.721 121.898 233.833 121.898 233.95C121.898 234.066 121.852 234.178 121.769 234.261C121.687 234.343 121.575 234.389 121.458 234.389Z" fill="#606060"/>
</g>
<defs>
<clipPath id="clip0_1105_2098">
<rect width="340" height="233.779" fill="white" transform="translate(0 0.610535)"/>
</clipPath>
</defs>
</svg>
