<svg width="775" height="420" viewBox="0 0 775 420" fill="none" xmlns="http://www.w3.org/2000/svg">
<g clip-path="url(#clip0_625_1158)">
<path d="M420.674 221.839V222.749C420.672 231.108 417.351 239.123 411.44 245.032C405.528 250.941 397.512 254.261 389.154 254.259H33.3837C25.027 254.258 17.0129 250.938 11.1038 245.029C5.19477 239.12 1.87476 231.106 1.87396 222.749V221.839H420.674Z" fill="#EAEAEA"/>
<path d="M76.2836 71.8392C50.5736 78.1892 27.4936 58.4092 23.4637 40.0592L25.2538 39.7392C46.9237 34.9492 71.1136 50.4391 76.2836 71.8392Z" fill="#606060"/>
<path d="M697.743 411.671C690.307 408.46 688.618 396.762 694.842 391.579C701.065 386.396 712.264 390.174 714.077 398.068L707.14 348.45C705.545 337.042 704.269 324.29 711.163 315.063C717.619 306.422 730.23 303.654 740.355 307.373C750.479 311.093 757.962 320.372 761.137 330.68C764.312 340.988 763.562 352.191 760.79 362.614C758.018 373.038 753.309 382.829 748.546 392.507C743.665 402.423 737.746 413.17 727.313 416.82C717.347 420.307 697.743 411.671 697.743 411.671Z" fill="#EAEAEA"/>
<path d="M730.329 306.432C734.887 320.658 737.057 335.541 736.751 350.476C736.464 365.345 733.793 380.072 728.84 394.094C726.02 402.049 722.448 409.717 718.17 416.993C717.986 417.336 717.941 417.737 718.046 418.112C718.151 418.486 718.398 418.806 718.734 419.002C719.07 419.199 719.469 419.257 719.847 419.164C720.226 419.072 720.553 418.837 720.761 418.508C728.44 405.386 733.896 391.085 736.909 376.183C739.966 361.211 740.578 345.842 738.721 330.674C737.677 322.174 735.835 313.791 733.221 305.635C732.632 303.804 729.735 304.587 730.329 306.432Z" fill="white"/>
<path d="M693.335 393.406L717.078 418.357C718.412 419.759 720.531 417.635 719.2 416.236L695.456 391.284C694.122 389.883 692.003 392.006 693.335 393.406Z" fill="white"/>
<path d="M673.165 299.194C672.319 299.196 671.501 298.892 670.862 298.338C656.2 288.792 643.15 276.975 632.2 263.33C631.531 262.694 631.136 261.822 631.101 260.899C631.066 259.976 631.394 259.076 632.014 258.391L639.211 250.444L640.693 251.786L633.496 259.734C633.223 260.036 633.08 260.434 633.101 260.841C633.121 261.248 633.302 261.63 633.603 261.904L633.709 262.015C644.55 275.538 657.478 287.245 672.007 296.697L672.137 296.797C672.439 297.07 672.838 297.212 673.244 297.192C673.651 297.172 674.033 296.991 674.307 296.689L688.349 281.182C688.611 280.893 688.752 280.516 688.746 280.127C688.741 279.738 688.587 279.366 688.317 279.086C685.063 277.313 681.888 275.38 678.878 273.339L680 271.684C682.993 273.713 686.152 275.633 689.39 277.392L689.584 277.53C689.928 277.842 690.208 278.218 690.407 278.638C690.605 279.058 690.719 279.512 690.742 279.976C690.765 280.44 690.697 280.903 690.54 281.341C690.384 281.778 690.143 282.18 689.832 282.524L675.789 298.032C675.478 298.377 675.102 298.657 674.682 298.856C674.262 299.055 673.807 299.168 673.343 299.19C673.284 299.193 673.224 299.194 673.165 299.194Z" fill="#606060"/>
<path d="M657.684 273.088C662.094 277.078 666.624 279.268 667.804 277.968C667.958 277.747 668.055 277.492 668.086 277.225C668.118 276.958 668.082 276.688 667.984 276.438C667.506 274.966 666.741 273.603 665.734 272.428C661.814 269.638 658.004 266.628 654.304 263.398C653.144 263.018 652.254 263.028 651.824 263.508C651.763 263.576 651.712 263.654 651.674 263.738C650.934 265.248 653.504 269.298 657.684 273.088Z" fill="#606060"/>
<path d="M631.104 240.938C631.141 241.848 631.537 242.707 632.204 243.328C638.129 250.649 644.64 257.475 651.674 263.738C656.822 268.33 662.271 272.572 667.984 276.438C668.934 277.088 669.894 277.718 670.864 278.338C671.5 278.895 672.318 279.201 673.164 279.198C673.224 279.198 673.284 279.188 673.344 279.188C673.809 279.166 674.265 279.053 674.685 278.853C675.106 278.654 675.483 278.374 675.794 278.028L689.834 262.528C690.464 261.831 690.791 260.914 690.744 259.976C690.697 259.038 690.28 258.158 689.584 257.528L689.394 257.388C674.066 249.108 660.964 237.249 651.204 222.818L651.054 222.638C650.358 222.008 649.44 221.681 648.502 221.728C647.565 221.775 646.684 222.192 646.054 222.888L632.014 238.388C631.702 238.732 631.461 239.134 631.305 239.572C631.148 240.009 631.08 240.474 631.104 240.938ZM633.104 240.838C633.093 240.638 633.123 240.438 633.189 240.249C633.256 240.06 633.36 239.886 633.494 239.738L647.534 224.228C647.67 224.077 647.835 223.956 648.019 223.87C648.202 223.784 648.401 223.736 648.604 223.728C648.972 223.705 649.335 223.819 649.624 224.048C659.528 238.658 672.797 250.675 688.314 259.088C688.584 259.366 688.738 259.737 688.746 260.125C688.753 260.513 688.613 260.889 688.354 261.178L674.304 276.688C674.171 276.839 674.008 276.961 673.826 277.047C673.643 277.133 673.445 277.181 673.244 277.188C672.837 277.207 672.439 277.068 672.134 276.798L672.004 276.698C669.884 275.338 667.794 273.914 665.734 272.428C661.814 269.638 658.004 266.628 654.304 263.398C646.832 256.88 639.939 249.727 633.704 242.018L633.604 241.908C633.304 241.63 633.125 241.246 633.104 240.838V240.838Z" fill="#606060"/>
<path d="M667.803 257.971C668.978 256.674 666.354 252.383 661.942 248.388C657.53 244.393 653.001 242.206 651.826 243.503C650.651 244.801 653.275 249.092 657.687 253.087C662.099 257.082 666.628 259.269 667.803 257.971Z" fill="#606060"/>
<path d="M579.578 406.696L567.319 406.695L561.486 359.407L579.58 359.408L579.578 406.696Z" fill="#FFB8B8"/>
<path d="M582.705 418.58L543.174 418.579V418.079C543.174 416.058 543.572 414.057 544.345 412.191C545.118 410.324 546.252 408.628 547.681 407.199C549.109 405.77 550.806 404.637 552.672 403.864C554.539 403.091 556.54 402.693 558.56 402.693H558.562L582.705 402.694L582.705 418.58Z" fill="#404040"/>
<path d="M615.578 406.696L603.319 406.695L597.486 359.407L615.58 359.408L615.578 406.696Z" fill="#FFB8B8"/>
<path d="M618.705 418.58L579.174 418.579V418.079C579.174 416.058 579.572 414.057 580.345 412.191C581.118 410.324 582.252 408.628 583.681 407.199C585.109 405.77 586.806 404.637 588.672 403.864C590.539 403.091 592.54 402.693 594.56 402.693H594.562L618.705 402.694L618.705 418.58Z" fill="#404040"/>
<path d="M623.806 215.589L620.878 389.282C620.869 389.833 620.746 390.375 620.518 390.875C620.29 391.376 619.961 391.824 619.551 392.191C619.142 392.559 618.661 392.838 618.139 393.011C617.617 393.185 617.065 393.248 616.517 393.199L602.17 391.894C601.229 391.809 600.349 391.393 599.685 390.72C599.022 390.048 598.618 389.162 598.545 388.22L590.146 279.875C590.126 279.62 590.01 279.383 589.821 279.211C589.632 279.04 589.384 278.947 589.129 278.952C588.874 278.957 588.63 279.06 588.448 279.238C588.266 279.417 588.159 279.659 588.149 279.914L583.951 390.74C583.912 391.774 583.474 392.752 582.729 393.47C581.983 394.188 580.989 394.589 579.954 394.589H564.569C563.55 394.589 562.57 394.2 561.828 393.502C561.086 392.804 560.638 391.849 560.576 390.832L549.806 214.589L613.806 198.589L623.806 215.589Z" fill="#404040"/>
<path d="M577.385 52.4921C590.949 52.4921 601.946 41.4957 601.946 27.931C601.946 14.3663 590.949 3.37 577.385 3.37C563.82 3.37 552.823 14.3663 552.823 27.931C552.823 41.4957 563.82 52.4921 577.385 52.4921Z" fill="#FFB8B8"/>
<path d="M547.614 220.755C547.189 220.345 546.849 219.853 546.615 219.31C546.38 218.767 546.256 218.182 546.25 217.591L544.593 99.1481C544.493 93.1231 546.306 87.2214 549.77 82.291C553.235 77.3605 558.173 73.655 563.875 71.7067C566.176 61.2673 578.423 59.9597 585.562 60.1159C587.344 60.1543 589.091 60.6217 590.653 61.4787C592.216 62.3357 593.549 63.5569 594.54 65.0388L599.658 72.7155L610.938 79.3278C616.158 82.3749 620.276 87.0014 622.697 92.54C625.118 98.0786 625.717 104.243 624.408 110.144L622.672 118.044C616.556 146.003 617.138 175.012 624.369 202.704L627.864 216.028C628.046 216.722 628.06 217.449 627.903 218.15C627.747 218.85 627.426 219.502 626.966 220.053C626.506 220.604 625.922 221.037 625.26 221.316C624.599 221.594 623.881 221.711 623.166 221.656L619.107 221.343C618.054 221.264 617.062 220.815 616.306 220.077C615.55 219.338 615.079 218.357 614.975 217.305L614.303 210.589C614.291 210.465 614.233 210.351 614.141 210.268C614.049 210.184 613.93 210.138 613.806 210.138C613.682 210.138 613.562 210.184 613.47 210.268C613.378 210.351 613.321 210.465 613.308 210.589L612.658 217.091C612.548 218.19 612.038 219.21 611.226 219.957C610.413 220.704 609.353 221.126 608.25 221.143L550.819 222.027C550.795 222.027 550.771 222.028 550.747 222.028C549.577 222.03 548.452 221.573 547.614 220.755Z" fill="#606060"/>
<path d="M579.306 42.0885C579.406 45.5605 581.817 47.5692 584.776 49.3878C587.736 51.2064 591.195 51.9949 594.584 52.7555C595.039 52.9973 595.549 53.1176 596.064 53.105C596.58 53.0924 597.083 52.9471 597.526 52.6833C597.968 52.4195 598.336 52.0461 598.592 51.599C598.848 51.1519 598.985 50.6463 598.989 50.1309L602.098 38.3077C603.197 34.5309 603.998 30.6733 604.491 26.7707C605.239 19.2616 603.46 11.1836 598.219 5.75437C592.977 0.325086 583.888 -1.60358 577.607 2.57959C570.153 -6.94019 536.084 14.0926 544.488 20.7124C545.983 21.8901 548.269 20.3999 550.166 20.2554C552.064 20.111 554.191 20.4448 555.396 21.9177C556.971 23.8419 556.285 26.7082 556.934 29.1085C557.203 29.9531 557.636 30.7362 558.208 31.4126C558.781 32.089 559.482 32.6454 560.271 33.0496C561.059 33.4539 561.92 33.698 562.804 33.7679C563.687 33.8378 564.576 33.7321 565.418 33.4569C566.987 32.6837 568.463 31.7348 569.818 30.6283C571.274 29.6587 573.113 28.9423 574.752 29.5538C576.911 30.3599 577.679 33.0042 577.874 35.3013C578.203 37.5925 578.681 39.8597 579.306 42.0885Z" fill="#404040"/>
<path opacity="0.2" d="M573.57 107.914L569.57 156.914L548.57 207.914L579.57 157.914L573.57 107.914Z" fill="#404040"/>
<path d="M543.659 226.907C544.806 225.986 545.736 224.826 546.385 223.507C547.035 222.188 547.387 220.743 547.417 219.273C547.447 217.803 547.155 216.344 546.561 215C545.966 213.655 545.084 212.457 543.977 211.491L557.355 178.355L539.153 182.03L529.239 212.933C527.738 214.901 527.012 217.352 527.196 219.82C527.381 222.288 528.465 224.602 530.243 226.325C532.02 228.047 534.368 229.058 536.84 229.165C539.313 229.272 541.739 228.469 543.659 226.907V226.907Z" fill="#FFB8B8"/>
<path d="M542.685 212.293L532.381 208.579C531.32 208.191 530.442 207.419 529.921 206.416C529.4 205.413 529.274 204.251 529.566 203.159L546.564 140.94L549.155 84.7076C549.233 83.0103 549.648 81.3455 550.375 79.8099C551.103 78.2743 552.128 76.8986 553.392 75.7628C554.655 74.6271 556.132 73.7538 557.736 73.194C559.341 72.6341 561.04 72.3987 562.736 72.5015C564.432 72.6043 566.091 73.0433 567.616 73.7929C569.14 74.5425 570.501 75.5877 571.618 76.8678C572.735 78.1479 573.587 79.6374 574.124 81.2496C574.66 82.8618 574.871 84.5646 574.743 86.2589L570.115 147.832L548.457 209.55C548.129 210.483 547.503 211.282 546.676 211.824C545.849 212.366 544.867 212.621 543.881 212.55C543.473 212.519 543.07 212.432 542.685 212.293Z" fill="#606060"/>
<path d="M648.87 230.157C649.574 228.866 649.985 227.436 650.076 225.969C650.167 224.502 649.935 223.032 649.397 221.664C648.859 220.296 648.027 219.063 646.96 218.051C645.894 217.039 644.618 216.274 643.224 215.808L642.803 180.076L627.422 190.481L630.18 222.818C629.553 225.212 629.827 227.753 630.948 229.96C632.07 232.166 633.962 233.884 636.266 234.789C638.569 235.694 641.125 235.722 643.448 234.868C645.771 234.014 647.701 232.338 648.871 230.157L648.87 230.157Z" fill="#FFB8B8"/>
<path d="M642.341 217.046L631.402 217.589C630.273 217.64 629.166 217.266 628.299 216.541C627.431 215.816 626.867 214.793 626.716 213.673L618.429 149.708L599.155 96.8181C598.574 95.2218 598.315 93.5257 598.394 91.8285C598.474 90.1313 598.89 88.4668 599.619 86.9319C600.347 85.397 601.374 84.0222 602.638 82.8875C603.903 81.7528 605.381 80.8809 606.985 80.3223C608.59 79.7638 610.29 79.5298 611.985 79.634C613.681 79.7382 615.34 80.1785 616.864 80.9293C618.388 81.6801 619.748 82.7264 620.864 84.0073C621.98 85.2883 622.83 86.7784 623.366 88.391L642.818 146.994L646.611 212.292C646.667 213.279 646.397 214.257 645.843 215.076C645.289 215.894 644.481 216.508 643.544 216.823C643.155 216.951 642.75 217.026 642.341 217.046Z" fill="#606060"/>
<path d="M773.653 419.088H392.653C392.388 419.088 392.134 418.983 391.946 418.795C391.759 418.607 391.653 418.353 391.653 418.088C391.653 417.823 391.759 417.568 391.946 417.381C392.134 417.193 392.388 417.088 392.653 417.088H773.653C773.918 417.088 774.173 417.193 774.36 417.381C774.548 417.568 774.653 417.823 774.653 418.088C774.653 418.353 774.548 418.607 774.36 418.795C774.173 418.983 773.918 419.088 773.653 419.088Z" fill="#606060"/>
<path d="M323.892 203.189C318.149 203.189 313.581 201.481 310.315 198.112C302.934 190.497 303.396 175.819 303.768 164.024C303.876 160.593 303.978 157.352 303.875 154.637L303.874 154.596C303.9 149.292 306.018 144.212 309.768 140.46C313.518 136.708 318.596 134.588 323.901 134.559H371.516C377.253 134.559 381.815 136.265 385.079 139.629C392.461 147.238 392.003 161.913 391.636 173.704C391.529 177.143 391.428 180.391 391.533 183.111C391.514 188.423 389.399 193.513 385.646 197.273C381.894 201.033 376.809 203.16 371.496 203.189H323.892ZM305.874 154.582C305.978 157.362 305.876 160.629 305.766 164.087C305.407 175.504 304.959 189.713 311.751 196.72C314.667 199.727 318.638 201.189 323.892 201.189H371.493C376.271 201.164 380.845 199.255 384.223 195.877C387.601 192.498 389.509 187.924 389.534 183.146C389.426 180.398 389.529 177.117 389.637 173.642C389.993 162.228 390.435 148.022 383.644 141.022C380.731 138.019 376.763 136.559 371.517 136.559H323.904C319.131 136.586 314.562 138.493 311.187 141.867C307.811 145.241 305.902 149.809 305.874 154.582Z" fill="#606060"/>
<path d="M65.7638 73.6795C57.4146 73.6289 49.247 71.2366 42.1898 66.7747C31.8511 60.3504 24.0447 50.0613 21.8171 39.9241L21.5939 38.908L24.3878 38.408C46.381 33.554 71.2566 49.1961 76.5857 71.2444L76.8193 72.2112L75.8538 72.45C72.5527 73.2669 69.1645 73.6798 65.7638 73.6795ZM24.0125 40.5071C26.4122 49.8065 33.6955 59.1414 43.2455 65.076C52.479 70.9853 63.6687 73.0196 74.3913 70.7386C68.8158 50.1971 45.4688 35.7825 24.8001 40.3656L24.0125 40.5071Z" fill="#606060"/>
<path d="M38.0213 187.322C31.4787 187.322 26.1634 184.394 23.0427 179.053C21.2936 175.946 20.3742 172.441 20.3731 168.875C20.372 165.309 21.2892 161.803 23.0364 158.695C26.2069 153.263 31.649 150.316 38.3701 150.419H101.814C108.512 150.334 113.958 153.267 117.131 158.706C118.878 161.813 119.796 165.319 119.796 168.884C119.795 172.449 118.877 175.954 117.129 179.061C113.958 184.487 108.513 187.385 101.799 187.319H38.3539C38.2427 187.321 38.1318 187.321 38.0213 187.322ZM38.0585 152.417C32.2237 152.417 27.5106 154.997 24.7637 159.703C23.1897 162.504 22.3634 165.662 22.3645 168.874C22.3655 172.087 23.1939 175.245 24.7697 178.044C27.5629 182.825 32.3726 185.413 38.3389 185.319H101.814C107.786 185.414 112.611 182.827 115.402 178.052C116.977 175.252 117.804 172.095 117.804 168.883C117.804 165.671 116.978 162.513 115.403 159.714C112.61 154.926 107.785 152.347 101.828 152.419H38.3491C38.2522 152.418 38.1548 152.417 38.0584 152.417H38.0585Z" fill="#606060"/>
<path d="M340.174 158.339H320.174C318.848 158.339 317.576 157.812 316.638 156.875C315.701 155.937 315.174 154.665 315.174 153.339C315.174 152.013 315.701 150.741 316.638 149.804C317.576 148.866 318.848 148.339 320.174 148.339H340.174C341.5 148.339 342.772 148.866 343.709 149.804C344.647 150.741 345.174 152.013 345.174 153.339C345.174 154.665 344.647 155.937 343.709 156.875C342.772 157.812 341.5 158.339 340.174 158.339Z" fill="#606060"/>
<path d="M340.174 174.339H320.174C318.848 174.339 317.576 173.812 316.638 172.875C315.701 171.937 315.174 170.665 315.174 169.339C315.174 168.013 315.701 166.741 316.638 165.804C317.576 164.866 318.848 164.339 320.174 164.339H340.174C341.5 164.339 342.772 164.866 343.709 165.804C344.647 166.741 345.174 168.013 345.174 169.339C345.174 170.665 344.647 171.937 343.709 172.875C342.772 173.812 341.5 174.339 340.174 174.339Z" fill="#606060"/>
<path d="M340.174 190.339H320.174C318.848 190.339 317.576 189.812 316.638 188.875C315.701 187.937 315.174 186.665 315.174 185.339C315.174 184.013 315.701 182.741 316.638 181.804C317.576 180.866 318.848 180.339 320.174 180.339H340.174C341.5 180.339 342.772 180.866 343.709 181.804C344.647 182.741 345.174 184.013 345.174 185.339C345.174 186.665 344.647 187.937 343.709 188.875C342.772 189.812 341.5 190.339 340.174 190.339Z" fill="#606060"/>
<path d="M375.174 158.339H355.174C353.848 158.339 352.576 157.812 351.638 156.875C350.701 155.937 350.174 154.665 350.174 153.339C350.174 152.013 350.701 150.741 351.638 149.804C352.576 148.866 353.848 148.339 355.174 148.339H375.174C376.5 148.339 377.772 148.866 378.709 149.804C379.647 150.741 380.174 152.013 380.174 153.339C380.174 154.665 379.647 155.937 378.709 156.875C377.772 157.812 376.5 158.339 375.174 158.339Z" fill="#606060"/>
<path d="M375.174 174.339H355.174C353.848 174.339 352.576 173.812 351.638 172.875C350.701 171.937 350.174 170.665 350.174 169.339C350.174 168.013 350.701 166.741 351.638 165.804C352.576 164.866 353.848 164.339 355.174 164.339H375.174C376.5 164.339 377.772 164.866 378.709 165.804C379.647 166.741 380.174 168.013 380.174 169.339C380.174 170.665 379.647 171.937 378.709 172.875C377.772 173.812 376.5 174.339 375.174 174.339Z" fill="#606060"/>
<path d="M375.174 190.339H355.174C353.848 190.339 352.576 189.812 351.638 188.875C350.701 187.937 350.174 186.665 350.174 185.339C350.174 184.013 350.701 182.741 351.638 181.804C352.576 180.866 353.848 180.339 355.174 180.339H375.174C376.5 180.339 377.772 180.866 378.709 181.804C379.647 182.741 380.174 184.013 380.174 185.339C380.174 186.665 379.647 187.937 378.709 188.875C377.772 189.812 376.5 190.339 375.174 190.339Z" fill="#606060"/>
<path d="M420.674 87.2802H1.8739V89.2802H420.674V87.2802Z" fill="#606060"/>
<path d="M387.674 254.839H33.6737C24.9246 254.829 16.5367 251.349 10.3501 245.163C4.16354 238.976 0.683589 230.588 0.673706 221.839V49.8392C0.683589 41.0901 4.16354 32.7022 10.3501 26.5156C16.5367 20.3291 24.9246 16.8491 33.6737 16.8392H387.674C396.423 16.8491 404.811 20.3291 410.997 26.5156C417.184 32.7022 420.664 41.0901 420.674 49.8392V221.839C420.664 230.588 417.184 238.976 410.997 245.163C404.811 251.349 396.423 254.829 387.674 254.839ZM33.6737 18.8392C25.4549 18.8486 17.5753 22.1177 11.7637 27.9293C5.9521 33.7409 2.68304 41.6204 2.67371 49.8392V221.839C2.68305 230.058 5.95211 237.938 11.7637 243.749C17.5753 249.561 25.4549 252.83 33.6737 252.839H387.674C395.893 252.83 403.772 249.561 409.584 243.749C415.395 237.938 418.664 230.058 418.674 221.839V49.8392C418.664 41.6204 415.395 33.7408 409.584 27.9292C403.772 22.1176 395.893 18.8485 387.674 18.8392H33.6737Z" fill="#606060"/>
</g>
<defs>
<clipPath id="clip0_625_1158">
<rect width="773.979" height="419.084" fill="white" transform="translate(0.673706 0.146362)"/>
</clipPath>
</defs>
</svg>
