<svg width="768" height="282" viewBox="0 0 768 282" fill="none" xmlns="http://www.w3.org/2000/svg">
<path d="M0 276.929V0.329193H50.5783V237.415H173.073V276.929H0Z" fill="white"/>
<path d="M283.049 281.671C263.292 281.671 245.774 277.456 230.495 269.026C215.216 260.597 203.23 248.742 194.537 233.463C185.844 218.185 181.497 200.535 181.497 180.514C181.497 160.23 185.712 142.185 194.142 126.38C202.835 110.574 214.689 98.3246 229.704 89.6314C244.983 80.6749 262.896 76.1966 283.444 76.1966C302.674 76.1966 319.665 80.4115 334.417 88.8412C349.169 97.2709 360.628 108.862 368.795 123.614C377.224 138.102 381.439 154.303 381.439 172.216C381.439 175.114 381.308 178.143 381.044 181.305C381.044 184.466 380.912 187.759 380.649 191.183H231.68C232.734 206.462 238.002 218.448 247.486 227.141C257.233 235.834 268.955 240.181 282.654 240.181C292.927 240.181 301.489 237.942 308.338 233.463C315.45 228.722 320.719 222.663 324.144 215.287H375.512C371.824 227.668 365.634 238.995 356.94 249.269C348.511 259.279 337.974 267.182 325.329 272.978C312.948 278.773 298.854 281.671 283.049 281.671ZM283.444 117.291C271.063 117.291 260.13 120.848 250.647 127.96C241.164 134.809 235.105 145.347 232.47 159.572H330.071C329.28 146.664 324.539 136.39 315.846 128.751C307.152 121.111 296.352 117.291 283.444 117.291Z" fill="white"/>
<path d="M372.144 276.929L443.27 178.934L372.144 80.9383H426.279L476.067 150.483L525.46 80.9383H579.989L508.468 178.934L579.989 276.929H525.46L476.067 207.384L426.279 276.929H372.144Z" fill="white"/>
<path d="M655.779 281.671C638.92 281.671 625.09 279.037 614.289 273.768C603.489 268.236 595.454 260.992 590.186 252.035C584.917 243.079 582.283 233.2 582.283 222.399C582.283 204.223 589.395 189.471 603.621 178.143C617.846 166.816 639.183 161.152 667.634 161.152H717.422V156.411C717.422 142.976 713.602 133.097 705.963 126.775C698.323 120.453 688.84 117.291 677.512 117.291C667.239 117.291 658.282 119.794 650.643 124.799C643.003 129.541 638.261 136.653 636.417 146.137H587.025C588.342 131.912 593.083 119.531 601.25 108.993C609.68 98.4563 620.48 90.4217 633.651 84.8897C646.823 79.0943 661.575 76.1966 677.907 76.1966C705.831 76.1966 727.827 83.1775 743.896 97.1392C759.965 111.101 768 130.858 768 156.411V276.929H724.929L720.188 245.318C714.392 255.855 706.226 264.548 695.689 271.397C685.415 278.246 672.112 281.671 655.779 281.671ZM667.239 242.157C681.727 242.157 692.923 237.415 700.826 227.931C708.992 218.448 714.129 206.725 716.236 192.764H673.166C659.731 192.764 650.116 195.266 644.32 200.271C638.525 205.013 635.627 210.94 635.627 218.053C635.627 225.692 638.525 231.619 644.32 235.834C650.116 240.049 657.755 242.157 667.239 242.157Z" fill="white"/>
</svg>
